<svg version="1.1" xmlns="http://www.w3.org/2000/svg" xmlns:xlink="http://www.w3.org/1999/xlink" width="1380" height="1380" viewBox="0,0,1380,1380"><g transform="translate(451,520.00901)"><g data-paper-data="{&quot;isPaintingLayer&quot;:true}" fill-rule="evenodd" stroke="none" stroke-width="1" stroke-linecap="butt" stroke-linejoin="miter" stroke-miterlimit="10" stroke-dasharray="" stroke-dashoffset="0" style="mix-blend-mode: normal"><path d="M-451,-520.00901c460,0 920,0 1380,0c0,460 0,920 0,1380c-460,0 -920,0 -1380,0c0,-460 0,-920 0,-1380z" fill="#ffceae"/><path d="M651,-86.00901c0,1.333 0,2.667 0,4c-10.82,-0.404 -21.48,0.596 -32,3c-3.33,1.333 -6.67,2.667 -10,4c-0.33,0.667 -0.67,1.333 -1,2c-8.16,1.801 -15.16,5.801 -21,12c-3.84,0.721 -7.18,2.387 -10,5c-6.94,-4.607 -13.61,-9.607 -20,-15c-4.5,-0.602 -8.832,-1.769 -13,-3.5c0.333,-0.333 0.667,-0.667 1,-1c-3.317,-0.498 -6.65,-0.665 -10,-0.5c-1.461,6.209 -2.294,12.542 -2.5,19c-0.383,-0.556 -0.883,-0.889 -1.5,-1c-0.308,-10.415 0.025,-20.749 1,-31c6.595,-2.966 12.928,-6.299 19,-10c-9.089,-3.518 -18.089,-7.185 -27,-11c0.29,-4.436 -0.21,-8.77 -1.5,-13c-2.667,-3.333 -5.667,-6.333 -9,-9c0.428,-2.246 0.928,-4.579 1.5,-7c-1.914,-3.589 -4.248,-6.922 -7,-10c0.5,-1 1,-2 1.5,-3c0.667,-7.333 0.667,-14.667 0,-22c-0.764,-3.599 -2.93,-5.599 -6.5,-6c-0.261,-9.738 -0.261,-19.405 0,-29c3.815,-2.607 4.982,-6.274 3.5,-11c-2.192,5.344 -6.026,7.011 -11.5,5c-1.937,-1.54 -3.104,-3.54 -3.5,-6c-0.667,3 -0.667,6 0,9c0.708,0.881 1.542,1.547 2.5,2c0.974,9.918 1.307,19.918 1,30c-3.497,0.56 -5.997,2.56 -7.5,6c-1.027,8.146 -0.527,16.146 1.5,24c-1.961,2.963 -4.294,5.629 -7,8c-1.441,3.225 -1.107,6.225 1,9c-4.418,3.585 -7.918,7.919 -10.5,13c-0.497,2.646 -0.664,5.313 -0.5,8c-10.143,4.239 -20.143,8.739 -30,13.5c6.754,3.71 13.754,6.877 21,9.5c0.645,10.765 1.312,21.432 2,32c1.982,3.31 4.315,6.31 7,9c0,35 0,70 0,105c-0.832,-24.163 -1.332,-48.497 -1.5,-73c-0.667,1.333 -1.333,2.667 -2,4c-3.283,-2.89 -7.116,-4.557 -11.5,-5c-6.346,-6.379 -14.012,-8.712 -23,-7c-6.44,0.148 -12.774,0.982 -19,2.5c-1.692,1.401 -2.359,3.234 -2,5.5c-4.487,0.979 -7.654,3.645 -9.5,8c-1.875,1.242 -3.709,2.576 -5.5,4c-4.157,10.188 -5.824,20.855 -5,32c-10.672,-0.167 -21.339,0 -32,0.5c-1.534,0.923 -3.201,1.423 -5,1.5c-7.374,4.238 -15.041,7.905 -23,11c-1.513,3.024 -3.513,5.691 -6,8c-1.896,0.966 -3.896,1.299 -6,1c0,1.333 0,2.667 0,4c-1.992,-0.172 -3.658,0.495 -5,2c-2.189,-3.156 -3.856,-6.489 -5,-10c-1.333,0 -2.667,0 -4,0c0,-1.333 0,-2.667 0,-4c-1.992,0.172 -3.658,-0.495 -5,-2c-0.998,7.972 -1.331,15.972 -1,24c-0.994,-10.487 -1.328,-21.154 -1,-32c2.141,-1.622 3.808,-3.622 5,-6c-0.56,-6.621 0.107,-12.955 2,-19c3.355,-1.804 6.689,-3.804 10,-6c-5.428,-2.387 -10.761,-4.72 -16,-7c1.192,-5.297 -0.474,-9.297 -5,-12c-0.818,-2.607 -1.318,-5.274 -1.5,-8c-0.9,-1.27 -2.066,-2.27 -3.5,-3c1.999,-5.147 2.499,-10.481 1.5,-16c-3.984,-3.112 -5.484,-7.279 -4.5,-12.5c-0.265,-5.247 0.568,-10.081 2.5,-14.5c-3.513,4.161 -6.513,3.827 -9,-1c-0.969,2.828 -0.303,5.162 2,7c0.499,5.991 0.666,11.991 0.5,18c-2.092,0.061 -3.592,1.061 -4.5,3c-0.781,5.054 -0.614,10.054 0.5,15c-3.574,3.149 -5.574,7.149 -6,12c-3.122,3.383 -4.788,7.383 -5,12c-6.135,1.4 -11.802,3.9 -17,7.5c3.49,2.412 7.157,4.245 11,5.5c0,0.333 0,0.667 0,1c-5.151,0.539 -9.817,-0.628 -14,-3.5c-11.333,-0.667 -22.667,-0.667 -34,0c-10.327,2.6 -19.994,6.433 -29,11.5c-0.929,1.189 -1.262,2.522 -1,4c-2,0 -4,0 -6,0c-1.144,3.511 -2.811,6.844 -5,10c-0.828,0.915 -1.828,1.581 -3,2c-4.455,-5.623 -9.455,-10.789 -15,-15.5c-11.66,-5.867 -23.994,-7.7 -37,-5.5c-4.476,0.881 -8.476,2.548 -12,5c0,45.333 0,90.667 0,136c-0.992,0.172 -1.658,-0.162 -2,-1c0,-0.333 0,-0.667 0,-1c-0.167,-48.001 0,-96.001 0.5,-144c1.764,-1.889 3.264,-3.889 4.5,-6c0.992,-7.816 1.326,-15.816 1,-24c5.471,-2.212 10.805,-4.712 16,-7.5c-7.536,-3.27 -14.869,-6.77 -22,-10.5c0.496,-5.675 -1.671,-10.009 -6.5,-13c-0.333,-3 -0.667,-6 -1,-9c-1.692,-1.859 -3.192,-3.859 -4.5,-6c1.081,-5.968 1.248,-11.968 0.5,-18c-0.98,-1.481 -2.147,-2.815 -3.5,-4c-0.333,-3.667 -0.667,-7.333 -1,-11c0.211,-5.924 1.045,-11.591 2.5,-17c-3.713,3.987 -7.38,3.987 -11,0c1.376,5.635 2.209,11.469 2.5,17.5c-0.333,3.5 -0.667,7 -1,10.5c-2.218,1.424 -3.718,3.424 -4.5,6c-0.989,6 -0.489,11.834 1.5,17.5c-4.168,2.838 -5.502,6.671 -4,11.5c-2.333,2.333 -4.667,4.667 -7,7c-0.987,3.268 -1.32,6.602 -1,10c-6.935,2.401 -13.602,5.401 -20,9c3.394,2.244 7.061,3.91 11,5c0.787,1.604 2.12,2.271 4,2c-0.326,8.184 0.008,16.184 1,24c1.29,2.292 2.957,4.292 5,6c0.167,47.335 0,94.668 -0.5,142c-0.995,-0.566 -1.828,-1.233 -2.5,-2c1.333,-12.983 1.999,-26.316 2,-40c-0.167,-13.333 -0.333,-26.667 -0.5,-40c-0.333,0.667 -0.667,1.333 -1,2c-0.49,-1.293 -0.657,-2.627 -0.5,-4c-1.333,0 -2.667,0 -4,0c0,-1.333 0,-2.667 0,-4c-11.619,-2.827 -23.285,-2.66 -35,0.5c-3.201,5.633 -7.867,9.466 -14,11.5c-4.142,8.829 -6.142,18.162 -6,28c-2.712,1.76 -5.712,2.427 -9,2c0,-2.667 0,-5.333 0,-8c2.01,-7.134 2.51,-14.467 1.5,-22c-1.787,-4.574 -3.287,-9.241 -4.5,-14c-2.301,-4.288 -5.301,-7.955 -9,-11c0,-9.667 0,-19.333 0,-29c4.299,0.824 8.633,1.491 13,2c1.667,-0.333 3.333,-0.667 5,-1c6.916,-5.403 12.083,-12.07 15.5,-20c4.62,-10.737 8.62,-21.737 12,-33c5.977,-25.154 10.977,-50.487 15,-76c1.333,-4 2.667,-8 4,-12c1.927,-3.431 4.427,-6.431 7.5,-9c13.889,-8.736 23.056,-21.069 27.5,-37c2.031,-6.199 2.698,-12.532 2,-19c-2.246,-2.093 -4.746,-3.76 -7.5,-5c-1.756,-1.052 -2.423,-2.719 -2,-5c-3.423,-0.372 -5.923,0.961 -7.5,4c-1.494,-1.247 -2.994,-1.247 -4.5,0c-2.811,3.426 -4.811,7.26 -6,11.5c-3.854,4.254 -7.354,8.754 -10.5,13.5c-3.051,3.442 -6.884,5.108 -11.5,5c-0.611,-3.461 0.556,-6.128 3.5,-8c0.891,-2.979 1.724,-5.979 2.5,-9c-0.61,-5.091 -2.943,-6.091 -7,-3c-3.197,5.612 -6.197,11.279 -9,17c-3.064,3.324 -4.897,7.324 -5.5,12c0.464,11.028 -1.203,21.695 -5,32c-7.228,12.881 -14.728,25.547 -22.5,38c-3.647,7.556 -7.147,15.223 -10.5,23c-0.494,1.634 -0.66,3.301 -0.5,5c-1.052,0.149 -2.052,-0.017 -3,-0.5c-1.164,-2.328 -2.83,-4.162 -5,-5.5c0.313,-2.747 -0.02,-5.414 -1,-8c-6.335,-16.515 -12.335,-33.182 -18,-50c-4,-6.667 -8,-13.333 -12,-20c-2.81,-2.461 -5.143,-5.128 -7,-8c-2.601,-2.763 -4.268,-6.097 -5,-10c-1.342,-1.505 -3.008,-2.172 -5,-2c0.304,-0.65 0.637,-1.317 1,-2c4.482,-0.667 8.816,-1.334 13,-2c7.908,-0.529 13.741,-4.196 17.5,-11c0.028,-7.157 -3.138,-12.491 -9.5,-16c-2.088,-1.836 -3.421,-4.169 -4,-7c5.923,-2.957 6.589,-6.957 2,-12c0.605,-1.526 1.771,-2.526 3.5,-3c0.667,-2.667 0.667,-5.333 0,-8c-5.248,-3.741 -10.081,-8.075 -14.5,-13c-0.827,-3.959 -1.327,-7.959 -1.5,-12c-2.184,-3.366 -3.517,-7.033 -4,-11c-2.596,-3.672 -5.096,-7.338 -7.5,-11c0.356,-3.064 -0.477,-5.731 -2.5,-8c-10.619,-8.698 -22.786,-11.864 -36.5,-9.5c-27.813,4.477 -43.313,20.644 -46.5,48.5c-1.878,15.195 0.789,29.529 8,43c5.557,9.717 12.057,18.717 19.5,27c0,0.333 0,0.667 0,1c-7.104,3.409 -13.437,8.075 -19,14c-6.167,10.334 -12.834,20.334 -20,30c-17.393,32.182 -22.059,66.182 -14,102c1.464,4.594 2.63,9.26 3.5,14c3.678,7.021 6.512,14.354 8.5,22c3.531,5.064 6.531,10.397 9,16c-0.343,1.983 0.324,3.317 2,4c0.262,10.782 -0.405,21.449 -2,32c-0.722,0.418 -1.222,1.084 -1.5,2c-0.497,2.646 -0.664,5.313 -0.5,8c-3.386,14.067 -6.72,28.067 -10,42c0,-1.667 0,-3.333 0,-5c-23.107,-3.848 -46.441,-6.848 -70,-9c0.319,4.863 -0.014,9.53 -1,14c0.167,-10.672 0,-21.339 -0.5,-32c-5.509,-15.013 -9.842,-30.346 -13,-46c-6.825,-13.822 -10.825,-28.488 -12,-44c-13.853,-49.151 -17.52,-99.151 -11,-150c1.784,-8.587 3.284,-17.254 4.5,-26c0.829,-3.661 2.329,-6.995 4.5,-10c0.414,-4.156 1.414,-8.156 3,-12c4.172,-8.663 8.005,-17.33 11.5,-26c1.175,0.219 2.175,-0.114 3,-1c1.398,-5.132 4.064,-9.465 8,-13c0.798,-1.578 1.298,-3.244 1.5,-5c4.179,-5.705 8.345,-11.371 12.5,-17c5.272,-4.605 10.272,-9.605 15,-15c7.587,-4.918 14.254,-10.918 20,-18c8.824,-4.105 16.824,-9.438 24,-16c4.435,-2.551 9.101,-4.551 14,-6c1.146,-1.219 2.146,-2.552 3,-4c10.48,-4.487 20.814,-9.154 31,-14c3.333,-0.667 6.667,-1.333 10,-2c0.477,-0.978 1.143,-1.811 2,-2.5c6.573,-1.909 13.24,-3.743 20,-5.5c0.667,-0.667 1.333,-1.333 2,-2c13.786,-2.372 27.12,-6.372 40,-12c4.967,-0.829 9.967,-1.329 15,-1.5c6.001,-2.688 12.334,-4.188 19,-4.5c0,-1 0,-2 0,-3c13.41,0.145 26.743,-0.689 40,-2.5c71.03,-10.772 142.363,-12.438 214,-5c22.218,4.055 44.551,7.389 67,10c2.118,0.26 3.784,1.26 5,3c4.702,0.172 9.368,0.672 14,1.5c10.435,3.377 21.101,5.877 32,7.5c5.595,1.979 10.929,4.313 16,7c14.14,3.105 27.807,7.772 41,14c4.491,0.145 8.824,0.979 13,2.5c9.321,5.437 18.988,10.104 29,14c2.509,1.421 4.843,3.088 7,5c2.667,0.667 5.333,1.333 8,2c10.36,7.78 21.36,14.447 33,20c0.886,0.825 1.219,1.825 1,3c8.477,2.156 15.644,6.489 21.5,13c0.483,0.948 0.649,1.948 0.5,3c6.379,2.026 12.045,5.36 17,10c0.929,1.189 1.262,2.522 1,4c1.478,-0.262 2.811,0.071 4,1c24.06,21.871 42.39,47.704 55,77.5c-0.33,0.333 -0.67,0.667 -1,1c1.41,2.046 3.08,3.879 5,5.5c3.4,9.742 7.73,19.075 13,28c2.35,2.183 4.52,4.516 6.5,7c6,10.711 12,21.378 18,32c5.15,5.63 9.65,11.63 13.5,18z" fill="#fedec2"/><path d="M719,-314.00901c-3.33,-1.333 -6.67,-1.333 -10,0c-5.1,-4.023 -6.27,-9.023 -3.5,-15c1.65,8.575 6.48,10.908 14.5,7c1.17,-1.667 2.33,-3.333 3.5,-5c1.34,5.481 -0.16,9.814 -4.5,13z" fill="#cc8e5b"/><path d="M195,-288.00901c20.772,-1.041 40.439,2.959 59,12c3.882,5.219 8.882,8.885 15,11c4.149,4.304 7.816,8.97 11,14c0.825,0.886 1.825,1.219 3,1c2.664,4.673 4.83,9.673 6.5,15c2.595,0.731 4.261,2.398 5,5c12.605,42.5 2.772,78.833 -29.5,109c-4.02,3.509 -8.686,5.676 -14,6.5c-3.63,2.979 -7.63,5.146 -12,6.5c0.383,2.962 -0.617,3.962 -3,3c-18.324,3.767 -36.658,3.934 -55,0.5c-6.434,-2.611 -13.1,-4.611 -20,-6c-16.213,-10.716 -29.213,-24.549 -39,-41.5c-2.738,-8.047 -5.571,-16.047 -8.5,-24c-0.833,-12.68 -0.666,-25.346 0.5,-38c0.343,-6.009 2.343,-11.342 6,-16c6.049,-19.779 18.382,-34.112 37,-43c3.312,-3.659 7.312,-6.326 12,-8c8.652,-3.231 17.318,-5.564 26,-7z" fill="#fdce05"/><path d="M-77,-268.00901c-7.22,3.861 -14.387,7.861 -21.5,12c-0.667,2 -0.667,4 0,6c1.701,2.4 2.534,5.067 2.5,8c-1.904,4.742 -3.57,9.576 -5,14.5c1.105,11.711 6.272,21.211 15.5,28.5c4.321,17.916 14.488,22.083 30.5,12.5c1.541,-1.371 2.875,-2.871 4,-4.5c6.362,3.509 9.528,8.843 9.5,16c-3.759,6.804 -9.592,10.471 -17.5,11c-11.078,0.431 -22.078,-0.069 -33,-1.5c-3.694,-2.687 -6.194,-6.187 -7.5,-10.5c-0.333,-7.667 -0.667,-15.333 -1,-23c-3.704,-4.095 -7.871,-7.595 -12.5,-10.5c-3.667,-0.667 -7.333,-0.667 -11,0c-3.441,9.324 -2.107,17.991 4,26c-0.624,2.085 -1.624,3.918 -3,5.5c-3.069,4.738 -7.069,8.405 -12,11c-7.443,-8.283 -13.943,-17.283 -19.5,-27c-7.211,-13.471 -9.878,-27.805 -8,-43c3.187,-27.856 18.687,-44.023 46.5,-48.5c13.714,-2.364 25.881,0.802 36.5,9.5c2.023,2.269 2.856,4.936 2.5,8z" fill="#532213"/><path d="M719,-314.00901c0.4,2.982 -0.27,5.649 -2,8c2.59,2.814 2.59,5.647 0,8.5c2.58,2.885 2.58,5.718 0,8.5c1.97,2.512 2.3,5.179 1,8c3.62,2.452 6.79,5.452 9.5,9c0.67,8 0.67,16 0,24c-0.69,2.222 -1.53,4.389 -2.5,6.5c2.89,2.884 5.39,6.051 7.5,9.5c0.89,3.872 0.39,7.538 -1.5,11c11.07,5.805 15.4,14.805 13,27c-3.4,-0.864 -6.74,-2.031 -10,-3.5c-16.33,-0.667 -32.67,-0.667 -49,0c-1.03,0.513 -2.03,1.013 -3,1.5c-0.92,-11.274 3.41,-19.774 13,-25.5c-4.03,-9.112 -1.36,-15.278 8,-18.5c-1.01,-2.549 -1.84,-5.215 -2.5,-8c-0.67,-7.333 -0.67,-14.667 0,-22c1.53,-5.032 4.7,-8.699 9.5,-11c-0.34,-3.996 -0.67,-7.996 -1,-12c0.29,-1.544 0.96,-2.877 2,-4c-2.51,-3.032 -2.51,-6.032 0,-9c-1.49,-2.472 -2.16,-5.139 -2,-8c3.33,-1.333 6.67,-1.333 10,0z" fill="#e2ad79"/><path d="M-77,-268.00901c2.404,3.662 4.904,7.328 7.5,11c0.483,3.967 1.816,7.634 4,11c0.173,4.041 0.673,8.041 1.5,12c4.419,4.925 9.252,9.259 14.5,13c0.667,2.667 0.667,5.333 0,8c-1.729,0.474 -2.895,1.474 -3.5,3c-6.351,1.5 -11.184,5.166 -14.5,11c-1.224,5.113 0.11,9.447 4,13c0.155,-6.001 2.989,-10.001 8.5,-12c0.579,2.831 1.912,5.164 4,7c-1.125,1.629 -2.459,3.129 -4,4.5c-16.012,9.583 -26.179,5.416 -30.5,-12.5c-9.228,-7.289 -14.395,-16.789 -15.5,-28.5c1.43,-4.924 3.096,-9.758 5,-14.5c0.034,-2.933 -0.799,-5.6 -2.5,-8c-0.667,-2 -0.667,-4 0,-6c7.113,-4.139 14.28,-8.139 21.5,-12z" fill="#f28e6c"/><path d="M-72,-243.00901c2,0 4,0 6,0c0.117,1.984 -0.55,3.65 -2,5c-4.761,1.794 -8.927,4.46 -12.5,8c-0.552,-2.919 0.115,-5.586 2,-8c2.326,-1.566 4.492,-3.232 6.5,-5z" fill="#561f11"/><path d="M503,-209.00901c-2.891,-0.903 -5.891,-1.236 -9,-1c-0.958,-0.453 -1.792,-1.119 -2.5,-2c-0.667,-3 -0.667,-6 0,-9c0.396,2.46 1.563,4.46 3.5,6c5.474,2.011 9.308,0.344 11.5,-5c1.482,4.726 0.315,8.393 -3.5,11z" fill="#cd8f56"/><path d="M-53,-210.00901c4.589,5.043 3.923,9.043 -2,12c-5.511,1.999 -8.345,5.999 -8.5,12c-3.89,-3.553 -5.224,-7.887 -4,-13c3.316,-5.834 8.149,-9.5 14.5,-11z" fill="#562112"/><path d="M744,-194.00901c11.41,4.201 22.74,8.701 34,13.5c-7.49,4.412 -15.16,8.245 -23,11.5c-1.73,-2.183 -2.73,-4.85 -3,-8c-1,-0.667 -2,-1.333 -3,-2c-5.59,-0.629 -10.92,-2.129 -16,-4.5c-14.67,-0.667 -29.33,-0.667 -44,0c-5.33,1.333 -10.67,2.667 -16,4c-1.21,3.688 -2.54,7.188 -4,10.5c-8.02,-3.677 -16.02,-7.344 -24,-11c8.14,-3.571 16.14,-7.405 24,-11.5c4.43,-1.42 8.76,-2.92 13,-4.5c0.97,-0.487 1.97,-0.987 3,-1.5c16.33,-0.667 32.67,-0.667 49,0c3.26,1.469 6.6,2.636 10,3.5z" fill="#cd8e55"/><path d="M755,-169.00901c-1.63,12.93 -2.63,25.93 -3,39c-13.03,-5.381 -26.69,-7.381 -41,-6c-12.11,-0.792 -23.94,0.541 -35.5,4c-1.38,0.184 -2.21,0.851 -2.5,2c-1.37,-12.87 -2.7,-25.87 -4,-39c1.46,-3.312 2.79,-6.812 4,-10.5c5.33,-1.333 10.67,-2.667 16,-4c14.67,-0.667 29.33,-0.667 44,0c5.08,2.371 10.41,3.871 16,4.5c1,0.667 2,1.333 3,2c0.27,3.15 1.27,5.817 3,8z" fill="#e6b07c"/><path d="M705,-178.00901c4.05,-0.324 8.05,0.009 12,1c1.66,1.317 2.83,2.983 3.5,5c0.5,9.661 0.67,19.328 0.5,29c-6.67,0 -13.33,0 -20,0c-0.17,-9.672 0,-19.339 0.5,-29c2.26,-1.416 3.43,-3.416 3.5,-6z" fill="#fde7ca"/><path d="M680,-175.00901c3.19,-0.539 5.69,0.461 7.5,3c0.5,10.328 0.67,20.661 0.5,31c-4.31,0.58 -8.64,0.914 -13,1c-0.17,-9.339 0,-18.673 0.5,-28c1.01,-2.702 2.51,-5.035 4.5,-7z" fill="#fee9cb"/><path d="M737,-176.00901c4.79,0.617 7.96,3.284 9.5,8c0.5,9.661 0.67,19.328 0.5,29c-4.37,-0.311 -8.54,-1.311 -12.5,-3c-0.67,-9.333 -0.67,-18.667 0,-28c0.58,-2.161 1.42,-4.161 2.5,-6z" fill="#fce7c6"/><path d="M79,-192.00901c2.754,1.24 5.254,2.907 7.5,5c0.698,6.468 0.031,12.801 -2,19c-4.444,15.931 -13.611,28.264 -27.5,37c-3.073,2.569 -5.573,5.569 -7.5,9c-1.333,4 -2.667,8 -4,12c-4.023,25.513 -9.023,50.846 -15,76c-3.38,11.263 -7.38,22.263 -12,33c-3.417,7.93 -8.584,14.597 -15.5,20c-1.667,0.333 -3.333,0.667 -5,1c-4.367,-0.509 -8.701,-1.176 -13,-2c-28.344,-13.347 -54.677,-30.014 -79,-50c-8.368,6.016 -17.368,10.683 -27,14c-3.953,-0.036 -7.786,0.631 -11.5,2c-12.848,-1.369 -21.515,-8.036 -26,-20c-3.921,-12.336 -5.421,-25.002 -4.5,-38c0.167,-7.333 0.333,-14.667 0.5,-22c1.328,-5.952 2.495,-11.952 3.5,-18c6.317,-14.978 14.317,-28.978 24,-42c0,-3.333 0,-6.667 0,-10c0,-0.333 0,-0.667 0,-1c4.931,-2.595 8.931,-6.262 12,-11c1.052,-0.149 2.052,0.017 3,0.5c3.83,2.331 6.83,5.498 9,9.5c2.854,2.688 5.854,5.188 9,7.5c7.611,4.231 15.278,7.731 23,10.5c-0.504,4.007 -0.67,8.007 -0.5,12c3.562,5.548 6.229,11.548 8,18c0.756,10.189 1.589,20.356 2.5,30.5c5.682,9.854 13.682,17.021 24,21.5c7.493,5.139 14.493,11.139 21,18c0.607,-0.124 0.94,-0.457 1,-1c1.212,2.407 2.712,4.74 4.5,7c0.893,1.211 1.726,1.211 2.5,0c6.861,-14.717 15.028,-28.717 24.5,-42c6.159,-11.984 11.492,-24.317 16,-37c0.247,-6.382 0.747,-12.715 1.5,-19c6.064,-4.048 12.397,-7.715 19,-11c1.351,-2.696 3.184,-5.03 5.5,-7c0.49,-1.293 0.657,-2.627 0.5,-4c2.59,-0.752 5.09,-1.752 7.5,-3c1.107,0.085 2.107,0.419 3,1c5.691,-6.04 9.857,-13.04 12.5,-21c1.545,-0.952 3.212,-1.285 5,-1c0,-1.333 0,-2.667 0,-4z" fill="#f68f6d"/><path d="M79,-192.00901c0,1.333 0,2.667 0,4c-1.788,-0.285 -3.455,0.048 -5,1c-2.643,7.96 -6.809,14.96 -12.5,21c-0.893,-0.581 -1.893,-0.915 -3,-1c-2.41,1.248 -4.91,2.248 -7.5,3c0.157,1.373 -0.01,2.707 -0.5,4c-2.316,1.97 -4.149,4.304 -5.5,7c-6.603,3.285 -12.936,6.952 -19,11c-1.517,-1.962 -2.184,-4.295 -2,-7c0.843,-5.702 1.843,-11.369 3,-17c2.803,-5.721 5.803,-11.388 9,-17c4.057,-3.091 6.39,-2.091 7,3c-0.776,3.021 -1.609,6.021 -2.5,9c-2.944,1.872 -4.111,4.539 -3.5,8c4.616,0.108 8.449,-1.558 11.5,-5c3.146,-4.746 6.646,-9.246 10.5,-13.5c1.189,-4.24 3.189,-8.074 6,-11.5c1.506,-1.247 3.006,-1.247 4.5,0c1.577,-3.039 4.077,-4.372 7.5,-4c-0.423,2.281 0.244,3.948 2,5z" fill="#ec8262"/><path d="M-59,-164.00901c-4.184,0.666 -8.518,1.333 -13,2c-0.363,0.683 -0.696,1.35 -1,2c-2.519,3.04 -4.519,6.373 -6,10c-7.722,-2.769 -15.389,-6.269 -23,-10.5c-3.146,-2.312 -6.146,-4.812 -9,-7.5c-2.17,-4.002 -5.17,-7.169 -9,-9.5c-0.948,-0.483 -1.948,-0.649 -3,-0.5c1.376,-1.582 2.376,-3.415 3,-5.5c-6.107,-8.009 -7.441,-16.676 -4,-26c3.667,-0.667 7.333,-0.667 11,0c4.629,2.905 8.796,6.405 12.5,10.5c0.333,7.667 0.667,15.333 1,23c1.306,4.313 3.806,7.813 7.5,10.5c10.922,1.431 21.922,1.931 33,1.5z" fill="#ed8565"/><path d="M-63,-148.00901c1.857,2.872 4.19,5.539 7,8c4,6.667 8,13.333 12,20c5.665,16.818 11.665,33.485 18,50c0.98,2.586 1.313,5.253 1,8c0.963,3.601 1.63,7.267 2,11c-0.06,0.543 -0.393,0.876 -1,1c-6.507,-6.861 -13.507,-12.861 -21,-18c-3.589,-23.362 -10.422,-45.696 -20.5,-67c-0.667,-3.667 -0.667,-7.333 0,-11c0.417,-1.256 1.25,-1.923 2.5,-2z" fill="#fdfcfa"/><path d="M-135,-166.00901c0,3.333 0,6.667 0,10c-1.373,-0.157 -2.707,0.01 -4,0.5c-14.591,10.953 -25.091,25.12 -31.5,42.5c-3.178,11.712 -6.511,23.378 -10,35c-2.283,14.591 -2.95,29.258 -2,44c9.927,27.884 29.76,40.384 59.5,37.5c-5.747,-2.869 -11.747,-5.203 -18,-7c-6.279,-3.946 -12.279,-8.279 -18,-13c-11.199,-12.086 -16.199,-26.419 -15,-43c0.075,-7.198 0.575,-14.364 1.5,-21.5c3.458,-10.282 6.791,-20.615 10,-31c1,-1.667 2,-3.333 3,-5c0.483,0.948 0.649,1.948 0.5,3c-1.005,6.048 -2.172,12.048 -3.5,18c-0.167,7.333 -0.333,14.667 -0.5,22c-0.921,12.998 0.579,25.664 4.5,38c4.485,11.964 13.152,18.631 26,20c3.714,-1.369 7.547,-2.036 11.5,-2c6.279,1.319 12.613,2.819 19,4.5c9.789,4.394 19.455,9.061 29,14c-1.214,2.351 -2.048,4.851 -2.5,7.5c-12.384,15.108 -27.884,25.608 -46.5,31.5c-8.686,0.832 -17.353,0.665 -26,-0.5c-4.214,-0.774 -7.881,-2.607 -11,-5.5c-2.617,-0.822 -5.284,-1.322 -8,-1.5c-2.469,-5.603 -5.469,-10.936 -9,-16c-1.988,-7.646 -4.822,-14.979 -8.5,-22c-0.87,-4.74 -2.036,-9.406 -3.5,-14c-8.059,-35.818 -3.393,-69.818 14,-102c7.166,-9.666 13.833,-19.666 20,-30c5.563,-5.925 11.896,-10.591 19,-14z" fill="#fefdfc"/><path d="M752,-130.00901c-3.01,4.03 -6.01,8.03 -9,12c-1,77.498 -1.33,155.165 -1,233c-1,-77.832 -1.33,-155.832 -1,-234c-5.44,-0.488 -10.77,-1.488 -16,-3c-9.16,-1.158 -18.49,-1.324 -28,-0.5c-1.12,1.044 -2.46,1.71 -4,2c-3.99,0.499 -7.99,0.666 -12,0.5c-2.64,-3.255 -5.31,-6.588 -8,-10c0.29,-1.149 1.12,-1.816 2.5,-2c11.56,-3.459 23.39,-4.792 35.5,-4c14.31,-1.381 27.97,0.619 41,6z" fill="#cb8e57"/><path d="M494,-210.00901c3.109,-0.236 6.109,0.097 9,1c-0.261,9.595 -0.261,19.262 0,29c3.57,0.401 5.736,2.401 6.5,6c0.667,7.333 0.667,14.667 0,22c-0.5,1 -1,2 -1.5,3c2.752,3.078 5.086,6.411 7,10c-0.572,2.421 -1.072,4.754 -1.5,7c3.333,2.667 6.333,5.667 9,9c1.29,4.23 1.79,8.564 1.5,13c-2.424,-0.53 -4.757,-1.364 -7,-2.5c-15.045,-0.801 -30.045,-0.634 -45,0.5c-0.164,-2.687 0.003,-5.354 0.5,-8c2.582,-5.081 6.082,-9.415 10.5,-13c-2.107,-2.775 -2.441,-5.775 -1,-9c2.706,-2.371 5.039,-5.037 7,-8c-2.027,-7.854 -2.527,-15.854 -1.5,-24c1.503,-3.44 4.003,-5.44 7.5,-6c0.307,-10.082 -0.026,-20.082 -1,-30z" fill="#e1ab77"/><path d="M725,-122.00901c5.23,1.512 10.56,2.512 16,3c-0.33,78.168 0,156.168 1,234c-4.83,0.9 -9.83,1.566 -15,2c-2,-79.326 -2.66,-158.993 -2,-239z" fill="#d8975f"/><path d="M725,-122.00901c-8.39,-0.303 -16.72,0.03 -25,1c-0.72,75.168 -1.38,150.335 -2,225.5c0,5.344 0.33,10.511 1,15.5c-4.41,1.63 -9.08,2.63 -14,3c-1.39,-80.489 -2.39,-160.822 -3,-241c-0.33,0 -0.67,0 -1,0c0,-0.667 0,-1.333 0,-2c4.01,0.166 8.01,-0.001 12,-0.5c1.54,-0.29 2.88,-0.956 4,-2c9.51,-0.824 18.84,-0.658 28,0.5z" fill="#d89860"/><path d="M682,-118.00901c0.61,80.178 1.61,160.511 3,241c0,16.333 0,32.667 0,49c-0.33,0 -0.67,0 -1,0c0,-29 0,-58 0,-87c-1.29,0.237 -2.29,-0.096 -3,-1c1,-67.165 1.33,-134.498 1,-202z" fill="#bb9775"/><path d="M725,-122.00901c-0.66,80.007 0,159.674 2,239c-9.1,1.843 -18.44,2.843 -28,3c-0.67,-4.989 -1,-10.156 -1,-15.5c0.62,-75.165 1.28,-150.332 2,-225.5c8.28,-0.97 16.61,-1.303 25,-1z" fill="#e49f6a"/><path d="M524,-110.00901c8.911,3.815 17.911,7.482 27,11c-6.072,3.701 -12.405,7.034 -19,10c-0.652,-0.949 -0.986,-2.115 -1,-3.5c0.175,-1.658 0.842,-2.991 2,-4c-7.378,-1.459 -14.711,-3.126 -22,-5c-15.637,-1.637 -30.97,-0.303 -46,4c-0.628,2.939 -1.295,5.772 -2,8.5c-7.246,-2.623 -14.246,-5.79 -21,-9.5c9.857,-4.761 19.857,-9.261 30,-13.5c14.955,-1.134 29.955,-1.301 45,-0.5c2.243,1.136 4.576,1.97 7,2.5z" fill="#cc8e55"/><path d="M27,-166.00901c-1.157,5.631 -2.157,11.298 -3,17c-0.184,2.705 0.483,5.038 2,7c-0.753,6.285 -1.253,12.618 -1.5,19c-4.508,12.683 -9.841,25.016 -16,37c-9.472,13.283 -17.639,27.283 -24.5,42c-0.774,1.211 -1.607,1.211 -2.5,0c-1.788,-2.26 -3.288,-4.593 -4.5,-7c-0.37,-3.733 -1.037,-7.399 -2,-11c2.17,1.338 3.836,3.172 5,5.5c0.948,0.483 1.948,0.649 3,0.5c-0.16,-1.699 0.006,-3.366 0.5,-5c3.353,-7.777 6.853,-15.444 10.5,-23c7.772,-12.453 15.272,-25.119 22.5,-38c3.797,-10.305 5.464,-20.972 5,-32c0.603,-4.676 2.436,-8.676 5.5,-12z" fill="#e0765d"/><path d="M-135,-156.00901c-9.683,13.022 -17.683,27.022 -24,42c0.149,-1.052 -0.017,-2.052 -0.5,-3c-1,1.667 -2,3.333 -3,5c-3.209,10.385 -6.542,20.718 -10,31c-0.925,7.136 -1.425,14.302 -1.5,21.5c-1.199,16.581 3.801,30.914 15,43c5.721,4.721 11.721,9.054 18,13c6.253,1.797 12.253,4.131 18,7c-29.74,2.884 -49.573,-9.616 -59.5,-37.5c-0.95,-14.742 -0.283,-29.409 2,-44c3.489,-11.622 6.822,-23.288 10,-35c6.409,-17.38 16.909,-31.547 31.5,-42.5c1.293,-0.49 2.627,-0.657 4,-0.5z" fill="#f0efef"/><path d="M-73,-160.00901c1.992,-0.172 3.658,0.495 5,2c0.732,3.903 2.399,7.237 5,10c-1.25,0.077 -2.083,0.744 -2.5,2c-0.667,3.667 -0.667,7.333 0,11c10.078,21.304 16.911,43.638 20.5,67c-10.318,-4.479 -18.318,-11.646 -24,-21.5c-0.911,-10.144 -1.744,-20.311 -2.5,-30.5c-1.771,-6.452 -4.438,-12.452 -8,-18c-0.17,-3.993 -0.004,-7.993 0.5,-12c1.481,-3.627 3.481,-6.96 6,-10z" fill="#f0edeb"/><path d="M681,-118.00901c0.33,0 0.67,0 1,0c0.33,67.502 0,134.835 -1,202c-25.42,-9.529 -50.75,-19.363 -76,-29.5c-5.24,-1.339 -10.57,-1.839 -16,-1.5c-18.65,0.902 -37.32,1.568 -56,2c-3.333,0 -6.667,0 -10,0c-0.167,-34.335 0,-68.668 0.5,-103c2.08,-2.565 3.913,-5.232 5.5,-8c1.333,0 2,-0.667 2,-2c0.617,0.111 1.117,0.444 1.5,1c0.206,-6.458 1.039,-12.791 2.5,-19c3.35,-0.165 6.683,0.002 10,0.5c-0.333,0.333 -0.667,0.667 -1,1c4.168,1.731 8.5,2.898 13,3.5c6.39,5.393 13.06,10.393 20,15c2.82,-2.613 6.16,-4.279 10,-5c5.84,-6.199 12.84,-10.199 21,-12c0.33,-0.667 0.67,-1.333 1,-2c3.33,-1.333 6.67,-2.667 10,-4c10.52,-2.404 21.18,-3.404 32,-3c0,-1.333 0,-2.667 0,-4c1.57,0.437 2.74,1.437 3.5,3c1.61,3.775 3.44,7.442 5.5,11c6.4,6.738 12.07,14.071 17,22c0.77,1.211 1.61,1.211 2.5,0c0.33,0.667 0.67,1.333 1,2c0.5,-23.331 0.67,-46.664 0.5,-70z" fill="#f9e9d9"/><path d="M532,-89.00901c-0.975,10.251 -1.308,20.585 -1,31c0,1.333 -0.667,2 -2,2c-3.685,-2.12 -7.685,-3.953 -12,-5.5c-13,-0.667 -26,-0.667 -39,0c-4.612,1.059 -8.946,2.559 -13,4.5c-0.688,-10.568 -1.355,-21.235 -2,-32c0.705,-2.728 1.372,-5.561 2,-8.5c15.03,-4.303 30.363,-5.637 46,-4c7.289,1.874 14.622,3.541 22,5c-1.158,1.009 -1.825,2.342 -2,4c0.014,1.385 0.348,2.551 1,3.5z" fill="#e3ad79"/><path d="M517,-94.00901c3.734,-0.482 6.567,0.851 8.5,4c0.5,8.66 0.666,17.327 0.5,26c-3.502,-1.417 -7.169,-2.084 -11,-2c-0.549,-9.526 0.118,-18.859 2,-28z" fill="#fde7c5"/><path d="M469,-94.00901c2.894,-0.458 5.394,0.209 7.5,2c0.5,8.66 0.666,17.327 0.5,26c-3.377,0.459 -6.711,1.126 -10,2c-0.166,-8.673 0,-17.34 0.5,-26c0.791,-1.245 1.291,-2.578 1.5,-4z" fill="#fee8ca"/><path d="M495,-97.00901c4.17,-0.507 7.17,1.159 9,5c0.998,7.972 1.331,15.972 1,24c-5.333,0 -10.667,0 -16,0c-0.331,-8.692 0.002,-17.359 1,-26c1.603,-1.293 3.269,-2.293 5,-3z" fill="#fbe8c8"/><path d="M105,-42.00901c-11.338,-0.167 -22.672,0 -34,0.5c-1.245,0.791 -2.578,1.291 -4,1.5c-0.32,-3.398 0.013,-6.732 1,-10c2.333,-2.333 4.667,-4.667 7,-7c-1.502,-4.829 -0.168,-8.662 4,-11.5c-1.989,-5.666 -2.489,-11.5 -1.5,-17.5c0.782,-2.576 2.282,-4.576 4.5,-6c0.333,-3.5 0.667,-7 1,-10.5c-0.291,-6.031 -1.124,-11.865 -2.5,-17.5c3.62,3.987 7.287,3.987 11,0c-1.455,5.409 -2.289,11.076 -2.5,17c0.333,3.667 0.667,7.333 1,11c1.353,1.185 2.52,2.519 3.5,4c0.748,6.032 0.581,12.032 -0.5,18c1.308,2.141 2.808,4.141 4.5,6c0.333,3 0.667,6 1,9c4.829,2.991 6.996,7.325 6.5,13z" fill="#e1ab77"/><path d="M529,-56.00901c-1.587,2.768 -3.42,5.435 -5.5,8c-0.5,34.332 -0.667,68.665 -0.5,103c3.333,0 6.667,0 10,0c-8.15,0.993 -16.483,1.326 -25,1c0.055,-35.595 0.055,-71.262 0,-107c-8.028,-0.331 -16.028,0.002 -24,1c0.993,35.29 1.327,70.623 1,106c-4,0 -8,0 -12,0c0.332,-34.837 -0.002,-69.504 -1,-104c-2.685,-2.69 -5.018,-5.69 -7,-9c4.054,-1.941 8.388,-3.441 13,-4.5c13,-0.667 26,-0.667 39,0c4.315,1.547 8.315,3.38 12,5.5z" fill="#d7975f"/><path d="M508,55.99099c-3.333,0 -6.667,0 -10,0c-4.333,0 -8.667,0 -13,0c0.327,-35.377 -0.007,-70.71 -1,-106c7.972,-0.998 15.972,-1.331 24,-1c0.055,35.738 0.055,71.405 0,107z" fill="#e49f6a"/><path d="M301,-6.00901c-1.603,0.188 -2.937,-0.312 -4,-1.5c-9.521,-1.047 -18.854,-0.547 -28,1.5c0.212,-4.617 1.878,-8.617 5,-12c0.426,-4.851 2.426,-8.851 6,-12c-1.114,-4.946 -1.281,-9.946 -0.5,-15c0.908,-1.939 2.408,-2.939 4.5,-3c0.166,-6.009 -0.001,-12.009 -0.5,-18c-2.303,-1.838 -2.969,-4.172 -2,-7c2.487,4.827 5.487,5.161 9,1c-1.932,4.419 -2.765,9.253 -2.5,14.5c-0.984,5.221 0.516,9.388 4.5,12.5c0.999,5.519 0.499,10.853 -1.5,16c1.434,0.73 2.6,1.73 3.5,3c0.182,2.726 0.682,5.393 1.5,8c4.526,2.703 6.192,6.703 5,12z" fill="#e2ac7a"/><path d="M105,-42.00901c7.131,3.73 14.464,7.23 22,10.5c-5.195,2.788 -10.529,5.288 -16,7.5c0,-2.333 0,-4.667 0,-7c-16.371,-4.116 -32.704,-3.949 -49,0.5c-1.38,1.324 -1.714,2.657 -1,4c-0.948,0.483 -1.948,0.649 -3,0.5c-3.939,-1.09 -7.606,-2.756 -11,-5c6.398,-3.599 13.065,-6.599 20,-9c1.422,-0.209 2.755,-0.709 4,-1.5c11.328,-0.5 22.662,-0.667 34,-0.5z" fill="#cc8f57"/><path d="M111,-24.00901c0.326,8.184 -0.008,16.184 -1,24c-2.098,-1.435 -4.431,-2.602 -7,-3.5c-10.667,-0.667 -21.333,-0.667 -32,0c-2.198,0.373 -4.365,0.873 -6.5,1.5c-1.03,0.336 -1.53,1.003 -1.5,2c-0.992,-7.816 -1.326,-15.816 -1,-24c-1.88,0.271 -3.213,-0.396 -4,-2c1.052,0.149 2.052,-0.017 3,-0.5c-0.714,-1.343 -0.38,-2.676 1,-4c16.296,-4.449 32.629,-4.616 49,-0.5c0,2.333 0,4.667 0,7z" fill="#e5b07c"/><path d="M85,-30.00901c2.644,-0.34 4.977,0.327 7,2c0.997,6.634 1.33,13.3 1,20c-4,0 -8,0 -12,0c0,-6.667 0,-13.333 0,-20c1.88,0.271 3.213,-0.396 4,-2z" fill="#fbe5c5"/><path d="M103,-28.00901c1.992,-0.172 3.658,0.495 5,2c0.996,6.298 1.33,12.632 1,19c-2.706,-0.075 -5.373,-0.408 -8,-1c-0.494,-6.877 0.173,-13.544 2,-20z" fill="#fce7c7"/><path d="M67,-28.00901c2,0 4,0 6,0c0.33,6.7 -0.003,13.366 -1,20c-1.909,0.848 -3.909,1.182 -6,1c-0.22,-7.043 0.114,-14.043 1,-21z" fill="#fce9c7"/><path d="M472,56.99099c-54.478,3.068 -109.145,5.401 -164,7c-2.333,0 -4.667,0 -7,0c-0.331,-8.028 0.002,-16.028 1,-24c1.342,1.505 3.008,2.172 5,2c0,1.333 0,2.667 0,4c1.333,0 2.667,0 4,0c1.144,3.511 2.811,6.844 5,10c1.342,-1.505 3.008,-2.172 5,-2c0,-1.333 0,-2.667 0,-4c2.104,0.299 4.104,-0.034 6,-1c2.487,-2.309 4.487,-4.976 6,-8c7.959,-3.095 15.626,-6.762 23,-11c1.799,-0.077 3.466,-0.577 5,-1.5c10.661,-0.5 21.328,-0.667 32,-0.5c-0.824,-11.145 0.843,-21.812 5,-32c1.791,-1.424 3.625,-2.758 5.5,-4c1.846,-4.355 5.013,-7.021 9.5,-8c-0.359,-2.266 0.308,-4.099 2,-5.5c6.226,-1.518 12.56,-2.352 19,-2.5c8.988,-1.712 16.654,0.621 23,7c4.384,0.443 8.217,2.11 11.5,5c0.667,-1.333 1.333,-2.667 2,-4c0.168,24.503 0.668,48.837 1.5,73z" fill="#f9e9d9"/><path d="M472,-48.00901c0.998,34.496 1.332,69.163 1,104c4,0 8,0 12,0c4.333,0 8.667,0 13,0c-8.484,0.993 -17.151,1.326 -26,1c0,-35 0,-70 0,-105z" fill="#cda987"/><path d="M301,-6.00901c5.239,2.28 10.572,4.613 16,7c-3.311,2.196 -6.645,4.196 -10,6c-1.756,-1.052 -2.423,-2.719 -2,-5c-3.488,-0.205 -6.821,-1.039 -10,-2.5c-9.872,-1.191 -19.539,-0.357 -29,2.5c-0.501,2.155 -1.501,3.822 -3,5c-3.843,-1.255 -7.51,-3.088 -11,-5.5c5.198,-3.6 10.865,-6.1 17,-7.5c9.146,-2.047 18.479,-2.547 28,-1.5c1.063,1.188 2.397,1.688 4,1.5z" fill="#cd8e58"/><path d="M307,6.99099c-1.893,6.045 -2.56,12.379 -2,19c-3.726,-0.116 -6.893,-1.449 -9.5,-4c-8.804,0.644 -17.638,1.477 -26.5,2.5c-1.926,0.422 -2.926,1.589 -3,3.5c-0.35,-6.895 -1.35,-13.562 -3,-20c0,-0.333 0,-0.667 0,-1c1.499,-1.178 2.499,-2.845 3,-5c9.461,-2.857 19.128,-3.691 29,-2.5c3.179,1.461 6.512,2.295 10,2.5c-0.423,2.281 0.244,3.948 2,5z" fill="#e4af7c"/><path d="M283,1.99099c1.992,-0.172 3.658,0.495 5,2c0.995,5.292 1.328,10.625 1,16c-3.333,0 -6.667,0 -10,0c-0.166,-4.679 0.001,-9.345 0.5,-14c1.032,-1.527 2.199,-2.86 3.5,-4z" fill="#fbe6c8"/><path d="M263,7.99099c1.65,6.438 2.65,13.105 3,20c1.378,1.045 2.378,2.378 3,4c0,11.333 0,22.667 0,34c-10.006,0.177 -20.006,0.51 -30,1c0,30.333 0,60.667 0,91c-0.891,-0.761 -1.558,-1.761 -2,-3c-12.333,-0.333 -24.667,-0.667 -37,-1c-21.013,0.469 -42.013,1.135 -63,2c-10.161,-0.377 -20.161,-1.711 -30,-4c0,-45.333 0,-90.667 0,-136c3.524,-2.452 7.524,-4.119 12,-5c13.006,-2.2 25.34,-0.367 37,5.5c5.545,4.711 10.545,9.877 15,15.5c1.172,-0.419 2.172,-1.085 3,-2c2.189,-3.156 3.856,-6.489 5,-10c2,0 4,0 6,0c-0.262,-1.478 0.071,-2.811 1,-4c9.006,-5.067 18.673,-8.9 29,-11.5c11.333,-0.667 22.667,-0.667 34,0c4.183,2.872 8.849,4.039 14,3.5z" fill="#f9e9d9"/><path d="M269,3.99099c1.333,0 2.667,0 4,0c0,5.667 0,11.333 0,17c-1.762,-0.143 -3.429,0.191 -5,1c-1.163,-5.302 -1.329,-10.636 -0.5,-16c0.717,-0.544 1.217,-1.211 1.5,-2z" fill="#fbe8c6"/><path d="M297,3.99099c2.222,-0.322 4.056,0.345 5.5,2c0.499,5.323 0.666,10.656 0.5,16c-2.361,-0.174 -4.694,-0.507 -7,-1c-0.24,-5.727 0.093,-11.394 1,-17z" fill="#fce1bf"/><path d="M110,-0.00901c-1.236,2.111 -2.736,4.111 -4.5,6c-0.5,47.999 -0.667,95.999 -0.5,144c-2.687,0.164 -5.354,-0.003 -8,-0.5c0.333,-0.333 0.667,-0.667 1,-1c-0.948,-0.483 -1.948,-0.649 -3,-0.5c0.333,-47.671 0,-95.338 -1,-143c-4.6,-0.943 -9.267,-1.277 -14,-1c-0.17,1.322 0.163,2.489 1,3.5c-0.664,46.931 -1.331,93.764 -2,140.5c-3.36,-0.116 -6.693,-0.449 -10,-1c0.332,-47.17 -0.001,-94.17 -1,-141c-2.043,-1.708 -3.71,-3.708 -5,-6c-0.03,-0.997 0.47,-1.664 1.5,-2c2.135,-0.627 4.302,-1.127 6.5,-1.5c10.667,-0.667 21.333,-0.667 32,0c2.569,0.898 4.902,2.065 7,3.5z" fill="#d7975f"/><path d="M-167,67.99099c1.595,-10.551 2.262,-21.218 2,-32c-0.131,-0.739 0.036,-1.406 0.5,-2c15.389,15.571 33.889,21.071 55.5,16.5c8.593,-3.295 16.593,-7.629 24,-13c9.123,-8.45 17.123,-17.783 24,-28c2.799,0.732 5.466,2.066 8,4c3.265,3.307 3.765,7.14 1.5,11.5c-7.398,22.678 -19.564,42.178 -36.5,58.5c-1.717,1.559 -3.717,2.392 -6,2.5c-0.061,2.092 -1.061,3.592 -3,4.5c-7.063,3.271 -14.396,5.937 -22,8c-20.003,5.123 -35.169,-1.044 -45.5,-18.5c-1.359,-3.905 -2.192,-7.905 -2.5,-12z" fill="#fefefe"/><path d="M105,149.99099c0,0.333 0,0.667 0,1c-7.352,-0.168 -14.685,-0.668 -22,-1.5c-1.558,-0.21 -2.891,-0.71 -4,-1.5c0.669,-46.736 1.336,-93.569 2,-140.5c-0.837,-1.011 -1.17,-2.178 -1,-3.5c4.733,-0.277 9.4,0.057 14,1c1,47.662 1.333,95.329 1,143c1.052,-0.149 2.052,0.017 3,0.5c-0.333,0.333 -0.667,0.667 -1,1c2.646,0.497 5.313,0.664 8,0.5z" fill="#e49f6a"/><path d="M-179,151.99099c0,-10.667 0,-21.333 0,-32c3.28,-13.933 6.614,-27.933 10,-42c1.663,1.993 2.83,4.326 3.5,7c-0.049,14.257 6.118,24.757 18.5,31.5c17.392,2.922 33.726,-0.078 49,-9c7.797,-4.652 14.964,-10.152 21.5,-16.5c17.439,-19.552 29.606,-41.885 36.5,-67c7.178,4.499 13.511,10.166 19,17c-2.483,5.636 -4.983,11.303 -7.5,17c-18.263,26.937 -40.096,50.77 -65.5,71.5c-26.318,14.711 -54.652,22.211 -85,22.5z" fill="#fefefe"/><path d="M269,31.99099c1.976,10.281 2.643,20.948 2,32c9.333,0 18.667,0 28,0c-0.328,-10.846 0.006,-21.513 1,-32c-0.328,10.846 0.006,21.513 1,32c2.333,0 4.667,0 7,0c-12.871,0.702 -25.871,1.369 -39,2c0,-11.333 0,-22.667 0,-34z" fill="#c7a177"/><path d="M305,25.99099c-1.192,2.378 -2.859,4.378 -5,6c-0.994,10.487 -1.328,21.154 -1,32c-9.333,0 -18.667,0 -28,0c0.643,-11.052 -0.024,-21.719 -2,-32c-0.622,-1.622 -1.622,-2.955 -3,-4c0.074,-1.911 1.074,-3.078 3,-3.5c8.862,-1.023 17.696,-1.856 26.5,-2.5c2.607,2.551 5.774,3.884 9.5,4z" fill="#da985f"/><path d="M-15,17.99099c0,9.667 0,19.333 0,29c-2.329,7.927 -4.996,15.927 -8,24c0.333,0.333 0.667,0.667 1,1c0.886,-0.825 1.219,-1.825 1,-3c1.992,0.172 3.658,-0.495 5,-2c1.021,0.502 1.188,1.168 0.5,2c-11.28,10.598 -20.613,22.598 -28,36c-6.185,7.846 -12.685,15.346 -19.5,22.5c23.35,-5.175 43.35,-16.341 60,-33.5c0,2.667 0,5.333 0,8c0,1.333 0,2.667 0,4c-2.277,6.124 -6.277,10.957 -12,14.5c-8.495,6.082 -17.829,10.248 -28,12.5c18.742,99.422 5.242,194.089 -40.5,284c-5,7.667 -10,15.333 -15,23c33.643,-70.708 49.809,-145.542 48.5,-224.5c0.768,-26.413 -1.232,-52.579 -6,-78.5c-1.322,-0.17 -2.489,0.163 -3.5,1c-1.862,3.919 -3.529,7.919 -5,12c-6.543,53.846 -11.543,107.846 -15,162c-2.272,24.742 -6.605,49.076 -13,73c-8.677,26.528 -16.843,53.195 -24.5,80c0.5,0.333 1,0.667 1.5,1c37.242,-13.518 69.076,-34.852 95.5,-64c11.909,-14.214 20.243,-30.214 25,-48c0.617,0.111 1.117,0.444 1.5,1c0.5,8.994 0.666,17.994 0.5,27c-14.155,29.837 -33.822,56.67 -59,80.5c-5.081,2.582 -9.415,6.082 -13,10.5c-19.428,11.38 -39.428,21.71 -60,31c0,8.67 0,17.33 0,26c-10.001,-3.33 -20.001,-6.67 -30,-10c-2.683,-0.16 -4.35,-1.5 -5,-4c2.076,-10.31 5.076,-20.31 9,-30c4.427,-15.24 8.427,-30.573 12,-46c2.173,-8.87 3.84,-17.87 5,-27c1.173,-7.027 2.507,-14.027 4,-21c0.89,-3.934 1.39,-9.267 1.5,-16c4.684,-26.39 12.017,-52.057 22,-77c19.795,-42.172 29.295,-86.505 28.5,-133c-9.353,46.891 -24.186,91.891 -44.5,135c-3.999,12.348 -7.499,24.681 -10.5,37c-1.93,-3.873 -2.597,-8.206 -2,-13c0.009,-1.808 -0.491,-3.475 -1.5,-5c-0.5,-17.33 -0.667,-34.663 -0.5,-52c0,-2 0,-4 0,-6c1.071,-15.982 1.238,-31.982 0.5,-48c-2.039,-10.358 -4.872,-20.358 -8.5,-30c-7.261,2.482 -14.594,4.315 -22,5.5c-5.693,-7.555 -9.026,-16.055 -10,-25.5c-1.261,-3.874 -1.928,-7.874 -2,-12c30.348,-0.289 58.682,-7.789 85,-22.5c25.404,-20.73 47.237,-44.563 65.5,-71.5c2.517,-5.697 5.017,-11.364 7.5,-17c-5.489,-6.834 -11.822,-12.501 -19,-17c-6.894,25.115 -19.061,47.448 -36.5,67c-6.536,6.348 -13.703,11.848 -21.5,16.5c-15.274,8.922 -31.608,11.922 -49,9c-12.382,-6.743 -18.549,-17.243 -18.5,-31.5c-0.67,-2.674 -1.837,-5.007 -3.5,-7c-0.164,-2.687 0.003,-5.354 0.5,-8c0.278,-0.916 0.778,-1.582 1.5,-2c0.308,4.095 1.141,8.095 2.5,12c10.331,17.456 25.497,23.623 45.5,18.5c7.604,-2.063 14.937,-4.729 22,-8c1.939,-0.908 2.939,-2.408 3,-4.5c2.283,-0.108 4.283,-0.941 6,-2.5c16.936,-16.322 29.102,-35.822 36.5,-58.5c2.265,-4.36 1.765,-8.193 -1.5,-11.5c-2.534,-1.934 -5.201,-3.268 -8,-4c-6.877,10.217 -14.877,19.55 -24,28c-7.407,5.371 -15.407,9.705 -24,13c-21.611,4.571 -40.111,-0.929 -55.5,-16.5c-0.464,0.594 -0.631,1.261 -0.5,2c-1.676,-0.683 -2.343,-2.017 -2,-4c2.716,0.178 5.383,0.678 8,1.5c3.119,2.893 6.786,4.726 11,5.5c8.647,1.165 17.314,1.332 26,0.5c18.616,-5.892 34.116,-16.392 46.5,-31.5c0.452,-2.649 1.286,-5.149 2.5,-7.5c-9.545,-4.939 -19.211,-9.606 -29,-14c-6.387,-1.681 -12.721,-3.181 -19,-4.5c9.632,-3.317 18.632,-7.984 27,-14c24.323,19.986 50.656,36.653 79,50z" fill="#f1f0f0"/><path d="M-15,46.99099c3.699,3.045 6.699,6.712 9,11c1.213,4.759 2.713,9.426 4.5,14c1.01,7.533 0.51,14.866 -1.5,22c-16.65,17.159 -36.65,28.325 -60,33.5c6.815,-7.154 13.315,-14.654 19.5,-22.5c7.387,-13.402 16.72,-25.402 28,-36c0.688,-0.832 0.521,-1.498 -0.5,-2c-1.342,1.505 -3.008,2.172 -5,2c0.219,1.175 -0.114,2.175 -1,3c-0.333,-0.333 -0.667,-0.667 -1,-1c3.004,-8.073 5.671,-16.073 8,-24z" fill="#fefdfe"/><path d="M589,52.99099c3.48,0.823 7.14,1.323 11,1.5c-0.33,0.333 -0.67,0.667 -1,1c0.67,32.333 1.33,64.667 2,97c-12.84,0.169 -25.51,0.669 -38,1.5c-25.503,0.342 -50.836,1.009 -76,2c-16.667,0 -33.333,0 -50,0c-37.682,-0.66 -75.015,0.006 -112,2c-13.333,0 -26.667,0 -40,0c-15.333,0 -30.667,0 -46,0c0,-30.333 0,-60.667 0,-91c9.994,-0.49 19.994,-0.823 30,-1c13.129,-0.631 26.129,-1.298 39,-2c54.855,-1.599 109.522,-3.932 164,-7c8.849,0.326 17.516,-0.007 26,-1c3.333,0 6.667,0 10,0c8.517,0.326 16.85,-0.007 25,-1c18.68,-0.432 37.35,-1.098 56,-2z" fill="#2f3235"/><path d="M65,145.99099c-19.99,-1.702 -39.99,-3.702 -60,-6c0,1.333 0,2.667 0,4c-0.722,-0.418 -1.222,-1.084 -1.5,-2c-0.847,-11.056 -2.18,-22.056 -4,-33c-0.236,-1.619 -1.069,-2.619 -2.5,-3c0,-1.333 0,-2.667 0,-4c3.288,0.427 6.288,-0.24 9,-2c-0.142,-9.838 1.858,-19.171 6,-28c6.133,-2.034 10.799,-5.867 14,-11.5c11.715,-3.16 23.381,-3.327 35,-0.5c0,1.333 0,2.667 0,4c1.333,0 2.667,0 4,0c-0.157,1.373 0.01,2.707 0.5,4c0.333,-0.667 0.667,-1.333 1,-2c0.167,13.333 0.333,26.667 0.5,40c-0.001,13.684 -0.667,27.017 -2,40z" fill="#fae9d9"/><path d="M589,52.99099c5.43,-0.339 10.76,0.161 16,1.5c25.25,10.137 50.58,19.971 76,29.5c0.71,0.904 1.71,1.237 3,1c0,29 0,58 0,87c-26.99,-5.555 -53.99,-11.222 -81,-17c-13.32,-0.999 -26.65,-1.333 -40,-1c12.49,-0.831 25.16,-1.331 38,-1.5c-0.67,-32.333 -1.33,-64.667 -2,-97c0.33,-0.333 0.67,-0.667 1,-1c-3.86,-0.177 -7.52,-0.677 -11,-1.5z" fill="#1e1e20"/><path d="M-3,105.99099c1.431,0.381 2.264,1.381 2.5,3c1.82,10.944 3.153,21.944 4,33c0.278,0.916 0.778,1.582 1.5,2c0.402,12.076 1.568,24.076 3.5,36c1.049,33.388 0.549,66.721 -1.5,100c-0.821,3.141 -1.321,6.475 -1.5,10c-0.5,21.331 -0.667,42.664 -0.5,64c-4.757,17.786 -13.091,33.786 -25,48c-26.424,29.148 -58.258,50.482 -95.5,64c-0.5,-0.333 -1,-0.667 -1.5,-1c7.657,-26.805 15.823,-53.472 24.5,-80c6.395,-23.924 10.728,-48.258 13,-73c3.457,-54.154 8.457,-108.154 15,-162c1.471,-4.081 3.138,-8.081 5,-12c1.011,-0.837 2.178,-1.17 3.5,-1c4.768,25.921 6.768,52.087 6,78.5c1.309,78.958 -14.857,153.792 -48.5,224.5c5,-7.667 10,-15.333 15,-23c45.742,-89.911 59.242,-184.578 40.5,-284c10.171,-2.252 19.505,-6.418 28,-12.5c5.723,-3.543 9.723,-8.376 12,-14.5z" fill="#fefefe"/><path d="M743,-118.00901c0,78 0,156 0,234c12.44,-2.233 24.94,-4.233 37.5,-6c1.83,0.333 3.67,0.667 5.5,1c13.65,25.335 26.31,51.001 38,77c-3.67,-0.173 -6.17,1.493 -7.5,5c-0.5,24.998 -0.67,49.998 -0.5,75c3,0 6,0 9,0c9.33,0 18.67,0 28,0c2.64,8.488 4.64,17.155 6,26c-1.76,-0.377 -3.42,-1.044 -5,-2c-10.26,4.761 -16.09,12.761 -17.5,24c-5.49,2.253 -9.82,5.919 -13,11c0.81,6.851 -1.52,12.184 -7,16c-0.5,25.331 -0.67,50.664 -0.5,76c3.33,0 6.67,0 10,0c10.84,1.651 21.51,1.318 32,-1c-3.55,16.226 -9.21,31.56 -17,46c-0.83,-1.248 -2.17,-1.915 -4,-2c-19.75,-3.417 -39.42,-7.25 -59,-11.5c-31.01,-3.502 -62.01,-7.002 -93,-10.5c0,-76.667 0,-153.333 0,-230c0,-2.667 0,-5.333 0,-8c0.33,-8.184 -0.01,-16.184 -1,-24c0,-1.333 0,-2.667 0,-4c0.84,-0.342 1.17,-1.008 1,-2c0,-16.333 0,-32.667 0,-49c4.92,-0.37 9.59,-1.37 14,-3c9.56,-0.157 18.9,-1.157 28,-3c5.17,-0.434 10.17,-1.1 15,-2c-0.33,-77.835 0,-155.502 1,-233z" fill="#fecca6"/><path d="M-179,119.99099c0,10.667 0,21.333 0,32c0.072,4.126 0.739,8.126 2,12c-1.293,-1.342 -2.126,-3.009 -2.5,-5c-1.167,3.333 -2.333,6.667 -3.5,10c-10.16,3.31 -14.494,10.31 -13,21c-2.972,1.13 -4.972,3.13 -6,6c-0.998,23.828 -1.331,47.828 -1,72c22,0 44,0 66,0c-0.167,17.337 0,34.67 0.5,52c1.009,1.525 1.509,3.192 1.5,5c-1.984,-1.483 -3.817,-3.149 -5.5,-5c-2.227,-0.863 -4.393,-1.863 -6.5,-3c-1.539,-11.201 -7.539,-18.868 -18,-23c-2.336,0.501 -4.336,1.501 -6,3c-6.911,4.821 -10.411,11.488 -10.5,20c-11.148,3.158 -15.815,10.491 -14,22c-3,1.667 -5.333,4 -7,7c-0.5,23.664 -0.667,47.331 -0.5,71c21.994,-1.508 43.994,-2.842 66,-4c1,0 2,0 3,0c-1.16,9.13 -2.827,18.13 -5,27c-69.529,6.755 -138.196,17.922 -206,33.5c-12.6504,3.606 -25.3171,7.11 -38,10.5c0,2 0,4 0,6c-0.7679,-0.76 -1.2679,-1.76 -1.5,-3c-5.6221,-40.39 -2.9554,-80.057 8,-119c10.1962,-30.472 23.5295,-59.472 40,-87c3.856,-5.079 7.69,-10.079 11.5,-15c21.641,1.989 43.641,2.656 66,2c3,0 6,0 9,0c0.167,-25.336 0,-50.669 -0.5,-76c-1.571,-2.423 -3.737,-3.756 -6.5,-4c0.166,-4.014 -0.001,-8.014 -0.5,-12c-1.503,-3.44 -4.003,-5.44 -7.5,-6c2.304,-5.281 4.637,-10.615 7,-16c3.641,-11.223 6.307,-22.556 8,-34c0.986,-4.47 1.319,-9.137 1,-14c23.559,2.152 46.893,5.152 70,9c0,1.667 0,3.333 0,5z" fill="#fecca7"/><path d="M738,148.99099c3.39,1.119 6.22,3.119 8.5,6c2.74,4.278 4.57,8.944 5.5,14c10.4,3.228 14.9,10.228 13.5,21c2.29,1.29 4.29,2.957 6,5c0.83,24.503 0.66,48.837 -0.5,73c-21.49,-0.997 -43.16,-1.331 -65,-1c-0.17,-23.002 0,-46.002 0.5,-69c1.69,-2.524 3.86,-4.524 6.5,-6c0.61,-4.742 1.45,-9.409 2.5,-14c3.35,-3.167 7.01,-5.834 11,-8c1.49,-8.312 5.32,-15.312 11.5,-21z" fill="#884a1c"/><path d="M239,157.99099c0,0.667 0,1.333 0,2c0,0.667 0,1.333 0,2c0,1 0,2 0,3c0,0.333 0,0.667 0,1c0,0.667 0,1.333 0,2c-15.986,-1.627 -31.986,-3.127 -48,-4.5c-8.151,-0.712 -16.151,-2.212 -24,-4.5c-10.367,-0.348 -20.367,-1.348 -30,-3c20.987,-0.865 41.987,-1.531 63,-2c12.333,0.333 24.667,0.667 37,1c0.442,1.239 1.109,2.239 2,3z" fill="#fde3cb"/><path d="M543,155.99099c19.17,-1.328 38.5,-1.328 58,0c-14.65,0.999 -29.32,1.333 -44,1c-4.47,-0.986 -9.137,-1.319 -14,-1z" fill="#e1c64e"/><path d="M437,155.99099c0,0.333 0,0.667 0,1c-16.842,-0.33 -33.508,0.003 -50,1c-20.667,0 -41.333,0 -62,0c36.985,-1.994 74.318,-2.66 112,-2z" fill="#454022"/><path d="M437,156.99099c0,-0.333 0,-0.667 0,-1c16.667,0 33.333,0 50,0c18.667,0 37.333,0 56,0c4.863,-0.319 9.53,0.014 14,1c0,0.333 0,0.667 0,1c-16.667,0 -33.333,0 -50,0c-12.667,0 -25.333,0 -38,0c-10.656,-0.599 -21.323,-0.933 -32,-1z" fill="#ebc420"/><path d="M387,157.99099c16.492,-0.997 33.158,-1.33 50,-1c10.677,0.067 21.344,0.401 32,1c-13.156,0.996 -26.49,1.329 -40,1c-13.998,-0.394 -27.998,-0.727 -42,-1z" fill="#e3c450"/><path d="M239,157.99099c15.333,0 30.667,0 46,0c0.418,0.722 1.084,1.222 2,1.5c13.329,0.5 26.663,0.667 40,0.5c-3.141,0.821 -6.475,1.321 -10,1.5c-12.996,0.5 -25.996,0.667 -39,0.5c0.111,-0.617 0.444,-1.117 1,-1.5c-13.329,-0.5 -26.663,-0.667 -40,-0.5c0,-0.667 0,-1.333 0,-2z" fill="#a39038"/><path d="M285,157.99099c13.333,0 26.667,0 40,0c20.667,0 41.333,0 62,0c14.002,0.273 28.002,0.606 42,1c0,0.333 0,0.667 0,1c-34,0 -68,0 -102,0c-13.337,0.167 -26.671,0 -40,-0.5c-0.916,-0.278 -1.582,-0.778 -2,-1.5z" fill="#e4be21"/><path d="M469,157.99099c12.667,0 25.333,0 38,0c-25.815,1.624 -51.815,2.291 -78,2c0,-0.333 0,-0.667 0,-1c13.51,0.329 26.844,-0.004 40,-1z" fill="#56451d"/><path d="M239,159.99099c13.337,-0.167 26.671,0 40,0.5c-0.556,0.383 -0.889,0.883 -1,1.5c-12.667,0 -25.333,0 -38,0c-0.333,0 -0.667,0 -1,0c0,-0.667 0,-1.333 0,-2z" fill="#dab927"/><path d="M507,157.99099c16.667,0 33.333,0 50,0c16.18,-0.33 32.18,0.004 48,1c0,1 0,2 0,3c-1.6,-0.268 -2.93,0.066 -4,1c-38.67,0.074 -77.336,0.407 -116,1c-27.333,0 -54.667,0 -82,0c-14,0 -28,0 -42,0c-40.001,0.167 -80.001,0 -120,-0.5c-0.556,-0.383 -0.889,-0.883 -1,-1.5c12.667,0 25.333,0 38,0c13.004,0.167 26.004,0 39,-0.5c3.525,-0.179 6.859,-0.679 10,-1.5c34,0 68,0 102,0c26.185,0.291 52.185,-0.376 78,-2z" fill="#2e2e2e"/><path d="M239,161.99099c0.333,0 0.667,0 1,0c0.111,0.617 0.444,1.117 1,1.5c39.999,0.5 79.999,0.667 120,0.5c-40.497,0.999 -81.163,1.332 -122,1c0,-1 0,-2 0,-3z" fill="#231c03"/><path d="M605,158.99099c23.75,4.355 47.42,9.188 71,14.5c2.65,0.497 5.31,0.664 8,0.5c0,1.333 0,2.667 0,4c0.07,0.438 -0.1,0.772 -0.5,1c-20.94,-3.729 -41.78,-7.895 -62.5,-12.5c-6.75,-0.559 -13.42,-1.392 -20,-2.5c0,-0.333 0,-0.667 0,-1c1.07,-0.934 2.4,-1.268 4,-1c0,-1 0,-2 0,-3z" fill="#231f1c"/><path d="M563,153.99099c13.35,-0.333 26.68,0.001 40,1c27.01,5.778 54.01,11.445 81,17c0.33,0 0.67,0 1,0c0.17,0.992 -0.16,1.658 -1,2c-2.69,0.164 -5.35,-0.003 -8,-0.5c-23.58,-5.312 -47.25,-10.145 -71,-14.5c-15.82,-0.996 -31.82,-1.33 -48,-1c0,-0.333 0,-0.667 0,-1c14.68,0.333 29.35,-0.001 44,-1c-19.5,-1.328 -38.83,-1.328 -58,0c-18.667,0 -37.333,0 -56,0c25.164,-0.991 50.497,-1.658 76,-2z" fill="#b3862b"/><path d="M361,163.99099c14,0 28,0 42,0c-10.667,0.667 -21.333,1.333 -32,2c-44,0 -88,0 -132,0c0,-0.333 0,-0.667 0,-1c40.837,0.332 81.503,-0.001 122,-1z" fill="#97884e"/><path d="M403,163.99099c27.333,0 54.667,0 82,0c-37.82,1.665 -75.82,2.332 -114,2c10.667,-0.667 21.333,-1.333 32,-2z" fill="#dcbd32"/><path d="M601,162.99099c0,0.333 0,0.667 0,1c0,9.333 0,18.667 0,28c-29.18,-0.17 -58.18,0.496 -87,2c-8.333,0 -16.667,0 -25,0c-17.333,0 -34.667,0 -52,0c-26.355,-0.658 -52.355,0.009 -78,2c-32.668,-0.167 -65.335,0 -98,0.5c-0.556,0.383 -0.889,0.883 -1,1.5c-7,0 -14,0 -21,0c0,-10 0,-20 0,-30c0,-0.667 0,-1.333 0,-2c44,0 88,0 132,0c38.18,0.332 76.18,-0.335 114,-2c38.664,-0.593 77.33,-0.926 116,-1z" fill="#fdcd05"/><path d="M-130,391.99099c-1.98,-17.931 -2.98,-35.931 -3,-54c3.001,-12.319 6.501,-24.652 10.5,-37c20.314,-43.109 35.147,-88.109 44.5,-135c0.795,46.495 -8.705,90.828 -28.5,133c-9.983,24.943 -17.316,50.61 -22,77c-0.11,6.733 -0.61,12.066 -1.5,16z" fill="#e2e1e1"/><path d="M68,5.99099c0.999,46.83 1.332,93.83 1,141c3.307,0.551 6.64,0.884 10,1c1.109,0.79 2.442,1.29 4,1.5c7.315,0.832 14.648,1.332 22,1.5c0.342,0.838 1.008,1.172 2,1c9.839,2.289 19.839,3.623 30,4c9.633,1.652 19.633,2.652 30,3c7.849,2.288 15.849,3.788 24,4.5c16.014,1.373 32.014,2.873 48,4.5c0,10 0,20 0,30c0,1.333 0,2.667 0,4c0,1.333 0,2.667 0,4c-0.831,12.493 -1.331,25.16 -1.5,38c-0.5,57.999 -0.667,115.999 -0.5,174c-77.413,0.738 -154.747,3.571 -232,8.5c-1.959,9.572 -2.626,19.405 -2,29.5c0,15.333 0,30.67 0,46c-1.163,-25.163 -1.33,-50.497 -0.5,-76c1.162,-6.638 1.995,-13.305 2.5,-20c1.482,-4.515 2.148,-9.181 2,-14c1.33,-5.963 1.996,-12.296 2,-19c-3.132,-30.93 -3.799,-61.93 -2,-93c2.049,-33.279 2.549,-66.612 1.5,-100c-1.932,-11.924 -3.098,-23.924 -3.5,-36c0,-1.333 0,-2.667 0,-4c20.01,2.298 40.01,4.298 60,6c0.672,0.767 1.505,1.434 2.5,2c0.5,-47.332 0.667,-94.665 0.5,-142z" fill="#fdcca6"/><path d="M601,163.99099c6.58,1.108 13.25,1.941 20,2.5c20.72,4.605 41.56,8.771 62.5,12.5c0.4,-0.228 0.57,-0.562 0.5,-1c0.99,7.816 1.33,15.816 1,24c-3,0 -6,0 -9,0c-22.35,-2.723 -44.69,-5.39 -67,-8c-2.56,0.302 -4.89,-0.032 -7,-1c3.67,-0.545 3.34,-0.878 -1,-1c0,-9.333 0,-18.667 0,-28z" fill="#f2a108"/><path d="M-177,163.99099c0.974,9.445 4.307,17.945 10,25.5c7.406,-1.185 14.739,-3.018 22,-5.5c3.628,9.642 6.461,19.642 8.5,30c0.738,16.018 0.571,32.018 -0.5,48c-0.951,1.419 -1.284,3.085 -1,5c-21.333,0 -42.667,0 -64,0c0,-23.667 0,-47.333 0,-71c1.028,-2.87 3.028,-4.87 6,-6c-1.494,-10.69 2.84,-17.69 13,-21c1.167,-3.333 2.333,-6.667 3.5,-10c0.374,1.991 1.207,3.658 2.5,5z" fill="#894b1d"/><path d="M132,177.99099c5.966,3.588 9.133,8.921 9.5,16c7.501,3.029 11.334,8.696 11.5,17c1.314,0.813 2.481,1.813 3.5,3c0.5,17.997 0.667,35.997 0.5,54c-16.667,0 -33.333,0 -50,0c0,-18.333 0,-36.667 0,-55c0.979,-1.645 2.312,-2.979 4,-4c-0.293,-8.446 3.54,-13.78 11.5,-16c0.156,-6.993 3.323,-11.993 9.5,-15z" fill="#884a1c"/><path d="M-265,169.99099c3.497,0.56 5.997,2.56 7.5,6c0.499,3.986 0.666,7.986 0.5,12c2.763,0.244 4.929,1.577 6.5,4c0.5,25.331 0.667,50.664 0.5,76c-3,0 -6,0 -9,0c0.167,-24.336 0,-48.669 -0.5,-73c-0.526,-4.024 -2.693,-6.691 -6.5,-8c-0.987,-3.268 -1.32,-6.602 -1,-10c0.378,-2.421 1.045,-4.754 2,-7z" fill="#b2743d"/><path d="M45,169.99099c8.21,3.068 11.877,9.068 11,18c5.287,0.561 9.12,3.228 11.5,8c0.176,3.382 0.676,6.715 1.5,10c2.737,0.569 4.237,2.236 4.5,5c0.5,18.997 0.667,37.997 0.5,57c-18.667,0 -37.333,0 -56,0c-0.167,-20.003 0,-40.003 0.5,-60c0.759,-2.135 2.259,-3.468 4.5,-4c-0.891,-9.401 3.109,-15.401 12,-18c0.535,-7.179 3.869,-12.513 10,-16z" fill="#884a1c"/><path d="M601,191.99099c4.34,0.122 4.67,0.455 1,1c-24.99,0.885 -49.99,1.219 -75,1c-4.333,0 -8.667,0 -13,0c28.82,-1.504 57.82,-2.17 87,-2z" fill="#b99423"/><path d="M437,193.99099c-12.333,0.667 -24.667,1.333 -37,2c-8.333,0 -16.667,0 -25,0c-4,0 -8,0 -12,0c-1.333,0 -2.667,0 -4,0c25.645,-1.991 51.645,-2.658 78,-2z" fill="#e1c536"/><path d="M437,193.99099c17.333,0 34.667,0 52,0c-16.667,0.667 -33.333,1.333 -50,2c-13,0 -26,0 -39,0c12.333,-0.667 24.667,-1.333 37,-2z" fill="#826c25"/><path d="M489,193.99099c8.333,0 16.667,0 25,0c4.333,0 8.667,0 13,0c-28.981,1.992 -58.314,2.659 -88,2c16.667,-0.667 33.333,-1.333 50,-2z" fill="#342e1a"/><path d="M602,192.99099c2.11,0.968 4.44,1.302 7,1c-1.33,1.333 -2.67,2.667 -4,4c-30.85,-0.358 -61.517,0.309 -92,2c-24.667,0 -49.333,0 -74,0c-29.517,-0.32 -58.85,0.347 -88,2c-20.667,0 -41.333,0 -62,0c-16.667,0 -33.333,0 -50,0c0,-1.333 0,-2.667 0,-4c7,0 14,0 21,0c8.333,0 16.667,0 25,0c30.352,0.659 60.352,-0.008 90,-2c8.333,0 16.667,0 25,0c13,0 26,0 39,0c29.686,0.659 59.019,-0.008 88,-2c25.01,0.219 50.01,-0.115 75,-1z" fill="#2b2c2f"/><path d="M359,195.99099c1.333,0 2.667,0 4,0c-26,0.667 -52,1.333 -78,2c-8.333,0 -16.667,0 -25,0c0.111,-0.617 0.444,-1.117 1,-1.5c32.665,-0.5 65.332,-0.667 98,-0.5z" fill="#8f7033"/><path d="M363,195.99099c4,0 8,0 12,0c-29.648,1.992 -59.648,2.659 -90,2c26,-0.667 52,-1.333 78,-2z" fill="#2b1c09"/><path d="M609,193.99099c22.31,2.61 44.65,5.277 67,8c2.45,0.973 5.11,1.306 8,1c0,1.333 0,2.667 0,4c-2.31,-0.493 -4.64,-0.826 -7,-1c-4.67,0 -9.33,0 -14,0c-3.09,-1.285 -6.42,-1.951 -10,-2c-2.67,0 -5.33,0 -8,0c-9.22,-1.41 -18.55,-2.743 -28,-4c-4,0 -8,0 -12,0c0,-0.333 0,-0.667 0,-1c0,-0.333 0,-0.667 0,-1c1.33,-1.333 2.67,-2.667 4,-4z" fill="#26211e"/><path d="M824,187.99099c0.33,1.333 0.67,2.667 1,4c0,25.333 0,50.667 0,76c-3,0 -6,0 -9,0c-0.17,-25.002 0,-50.002 0.5,-75c1.33,-3.507 3.83,-5.173 7.5,-5z" fill="#b2733a"/><path d="M605,197.99099c0,0.333 0,0.667 0,1c-20.84,-0.331 -41.51,0.003 -62,1c-10,0 -20,0 -30,0c30.483,-1.691 61.15,-2.358 92,-2z" fill="#75683b"/><path d="M543,199.99099c20.49,-0.997 41.16,-1.331 62,-1c0,0.333 0,0.667 0,1c0,0.667 0,1.333 0,2c-9.33,0 -18.67,0 -28,0c7.16,-0.829 14.49,-1.329 22,-1.5c-18.66,-0.5 -37.33,-0.667 -56,-0.5z" fill="#c1a845"/><path d="M204,188.99099c5.9,3.238 8.9,8.238 9,15c7.025,1.347 10.192,5.681 9.5,13c1.57,1.114 2.903,2.447 4,4c0.5,15.997 0.667,31.997 0.5,48c-15,0 -30,0 -45,0c-0.167,-16.67 0,-33.337 0.5,-50c3.691,-3.02 5.358,-7.02 5,-12c2.07,-2.287 4.57,-3.953 7.5,-5c1.106,-5.752 4.106,-10.086 9,-13z" fill="#884a1c"/><path d="M605,199.99099c4,0 8,0 12,0c0.42,0.722 1.08,1.222 2,1.5c-3.65,0.499 -7.32,0.665 -11,0.5c-1,0 -2,0 -3,0c0,-0.667 0,-1.333 0,-2z" fill="#e89e16"/><path d="M439,199.99099c0,0.333 0,0.667 0,1c-14.843,-0.329 -29.51,0.004 -44,1c-14.667,0 -29.333,0 -44,0c29.15,-1.653 58.483,-2.32 88,-2z" fill="#8e8243"/><path d="M439,200.99099c0,-0.333 0,-0.667 0,-1c24.667,0 49.333,0 74,0c10,0 20,0 30,0c18.67,-0.167 37.34,0 56,0.5c-7.51,0.171 -14.84,0.671 -22,1.5c-10,0 -20,0 -30,0c-4.667,0 -9.333,0 -14,0c-20.667,0 -41.333,0 -62,0c-10.718,0.287 -21.385,-0.046 -32,-1z" fill="#ebc325"/><path d="M738,148.99099c-6.18,5.688 -10.01,12.688 -11.5,21c-3.99,2.166 -7.65,4.833 -11,8c-1.05,4.591 -1.89,9.258 -2.5,14c-2.64,1.476 -4.81,3.476 -6.5,6c-0.5,22.998 -0.67,45.998 -0.5,69c21.84,-0.331 43.51,0.003 65,1c-25,0 -50,0 -75,0c-0.17,-23.002 0,-46.002 0.5,-69c1.67,-3 4,-5.333 7,-7c-1.4,-10.772 3.1,-17.772 13.5,-21c0.8,-10.959 6.13,-18.792 16,-23.5c2.03,-0.599 3.7,-0.099 5,1.5z" fill="#b4763e"/><path d="M395,201.99099c14.49,-0.996 29.157,-1.329 44,-1c10.615,0.954 21.282,1.287 32,1c-18.667,0.667 -37.333,1.333 -56,2c-9.333,0 -18.667,0 -28,0c5.819,-0.828 11.819,-1.328 18,-1.5c-3.317,-0.498 -6.65,-0.665 -10,-0.5z" fill="#d4bb49"/><path d="M289,201.99099c20.667,0 41.333,0 62,0c14.667,0 29.333,0 44,0c3.35,-0.165 6.683,0.002 10,0.5c-6.181,0.172 -12.181,0.672 -18,1.5c-5,0 -10,0 -15,0c-23.667,0 -47.333,0 -71,0c-4.679,0.166 -9.345,-0.001 -14,-0.5c0.916,-0.278 1.582,-0.778 2,-1.5z" fill="#efc622"/><path d="M471,201.99099c20.667,0 41.333,0 62,0c0,0.333 0,0.667 0,1c-20.174,-0.33 -40.174,0.003 -60,1c-19.333,0 -38.667,0 -58,0c18.667,-0.667 37.333,-1.333 56,-2z" fill="#6a5824"/><path d="M239,201.99099c16.667,0 33.333,0 50,0c-0.418,0.722 -1.084,1.222 -2,1.5c4.655,0.499 9.321,0.666 14,0.5c-1,0.667 -2,1.333 -3,2c-19.667,0 -39.333,0 -59,0c0,-1.333 0,-2.667 0,-4z" fill="#c1a036"/><path d="M473,203.99099c19.826,-0.997 39.826,-1.33 60,-1c-0.418,0.722 -1.084,1.222 -2,1.5c5.94,-0.361 11.94,-0.527 18,-0.5c0,1.333 0,2.667 0,4c4.05,-0.324 8.05,0.009 12,1c-5.33,0.667 -10.67,1.333 -16,2c9.76,0.474 19.43,1.474 29,3c0.33,1 0.67,2 1,3c-1.7,5.539 -2.36,11.206 -2,17c1,0 2,0 3,0c-0.31,-2.885 0.03,-5.552 1,-8c-1.09,6.706 0.57,12.539 5,17.5c2.31,0.497 4.64,0.663 7,0.5c-1.45,0.802 -3.12,1.302 -5,1.5c0.67,0.667 1.33,1.333 2,2c-1.86,0.422 -3.69,0.922 -5.5,1.5c-1.77,-0.733 -3.6,-1.067 -5.5,-1c0.09,-3.098 -0.41,-3.432 -1.5,-1c-1.46,-1.648 -3.3,-2.648 -5.5,-3c0,-10 0,-20 0,-30c-7.33,0 -14.67,0 -22,0c-5.418,-1.522 -11.085,-2.522 -17,-3c0.667,-0.667 1.333,-1.333 2,-2c-9.265,-2.174 -18.598,-2.507 -28,-1c-4.041,-0.173 -8.041,-0.673 -12,-1.5c-5.705,-2.298 -11.705,-3.131 -18,-2.5z" fill="#33322d"/><path d="M533,201.99099c4.667,0 9.333,0 14,0c17.49,0.997 35.16,1.33 53,1c0,93.667 0,187.333 0,281c-19,0 -38,0 -57,0c-101.334,-1.88 -202.667,-3.877 -304,-6c0,-2 0,-4 0,-6c1.373,0.157 2.707,-0.01 4,-0.5c-0.667,-0.333 -1.333,-0.667 -2,-1c1.317,-7.934 1.984,-16.1 2,-24.5c-0.167,-8 -0.333,-16 -0.5,-24c-1.128,-1.845 -1.628,-3.845 -1.5,-6c0.722,0.418 1.222,1.084 1.5,2c0.5,-58.666 0.667,-117.332 0.5,-176c-1.333,0 -2,0.667 -2,2c-0.667,0 -1.333,0 -2,0c0,-12.667 0,-25.333 0,-38c19.667,0 39.333,0 59,0c6.164,1.728 12.497,2.394 19,2c0,2.667 0,5.333 0,8c-18.174,0.247 -36.174,0.913 -54,2c0,10.667 0,21.333 0,32c5.667,0 11.333,0 17,0c19.003,0.167 38.003,0 57,-0.5c0.571,-1.205 1.238,-2.372 2,-3.5c0.832,-7.979 1.332,-15.979 1.5,-24c0.333,1.667 0.667,3.333 1,5c0.236,-1.619 1.069,-2.619 2.5,-3c-0.963,4.296 -1.129,8.629 -0.5,13c0.383,0.556 0.883,0.889 1.5,1c0.333,6.333 3.667,9.667 10,10c4.249,0.183 8.249,0.183 12,0c8.333,0 16.667,0 25,0c18.336,0.167 36.67,0 55,-0.5c-0.556,-0.383 -0.889,-0.883 -1,-1.5c2.333,0 4.667,0 7,0c0,-10 0,-20 0,-30c-28,0 -56,0 -84,0c5.819,-0.828 11.819,-1.328 18,-1.5c-7.326,-0.5 -14.659,-0.666 -22,-0.5c0,-1.333 0,-2.667 0,-4c5.294,-0.182 5.294,-0.682 0,-1.5c3.317,-0.498 6.65,-0.665 10,-0.5c0,-1 0,-2 0,-3c-1.291,0.237 -2.291,-0.096 -3,-1c5,0 10,0 15,0c9.333,0 18.667,0 28,0c19.333,0 38.667,0 58,0c6.295,-0.631 12.295,0.202 18,2.5c3.959,0.827 7.959,1.327 12,1.5c9.402,-1.507 18.735,-1.174 28,1c-0.667,0.667 -1.333,1.333 -2,2c5.915,0.478 11.582,1.478 17,3c-19,0 -38,0 -57,0c0,10.333 0,20.667 0,31c26.329,-0.634 52.662,-0.967 79,-1c2.2,0.352 4.04,1.352 5.5,3c1.09,-2.432 1.59,-2.098 1.5,1c1.9,-0.067 3.73,0.267 5.5,1c1.81,-0.578 3.64,-1.078 5.5,-1.5c-0.67,-0.667 -1.33,-1.333 -2,-2c1.88,-0.198 3.55,-0.698 5,-1.5c5.46,-3.192 7.46,-8.025 6,-14.5c1.35,-7.958 -1.65,-13.124 -9,-15.5c-5.72,2.041 -8.72,6.041 -9,12c-0.97,2.448 -1.31,5.115 -1,8c-1,0 -2,0 -3,0c-0.36,-5.794 0.3,-11.461 2,-17c-0.33,-1 -0.67,-2 -1,-3c-9.57,-1.526 -19.24,-2.526 -29,-3c5.33,-0.667 10.67,-1.333 16,-2c-3.95,-0.991 -7.95,-1.324 -12,-1c0,-1.333 0,-2.667 0,-4c-6.06,-0.027 -12.06,0.139 -18,0.5c0.916,-0.278 1.582,-0.778 2,-1.5c0,-0.333 0,-0.667 0,-1z" fill="#2f3235"/><path d="M547,201.99099c10,0 20,0 30,0c9.33,0 18.67,0 28,0c1,0 2,0 3,0c11.47,1.821 23.14,3.155 35,4c1.33,0 2.67,0 4,0c5.12,1.306 10.45,1.973 16,2c1.67,0 3.33,0 5,0c2.33,0.667 4.67,1.333 7,2c2.45,0.973 5.11,1.306 8,1c0,4.333 0,8.667 0,13c-1.33,0 -2.67,0 -4,0c0,5.333 0,10.667 0,16c1.33,0 2.67,0 4,0c0.66,75.547 -0.01,150.88 -2,226c0,0.333 0,0.667 0,1c-26.4,5.683 -52.73,11.849 -79,18.5c-19.86,0.87 -39.53,0.37 -59,-1.5c19,0 38,0 57,0c0,-93.667 0,-187.333 0,-281c-17.84,0.33 -35.51,-0.003 -53,-1z" fill="#1e1e20"/><path d="M617,199.99099c9.45,1.257 18.78,2.59 28,4c-1.37,-0.157 -2.71,0.01 -4,0.5c0.92,0.278 1.58,0.778 2,1.5c-11.86,-0.845 -23.53,-2.179 -35,-4c3.68,0.165 7.35,-0.001 11,-0.5c-0.92,-0.278 -1.58,-0.778 -2,-1.5z" fill="#b18133"/><path d="M645,203.99099c2.67,0 5.33,0 8,0c1.11,0.79 2.44,1.29 4,1.5c-3.32,0.498 -6.65,0.665 -10,0.5c-1.33,0 -2.67,0 -4,0c-0.42,-0.722 -1.08,-1.222 -2,-1.5c1.29,-0.49 2.63,-0.657 4,-0.5z" fill="#ea9e15"/><path d="M653,203.99099c3.58,0.049 6.91,0.715 10,2c-1.37,-0.157 -2.71,0.01 -4,0.5c1.56,0.21 2.89,0.71 4,1.5c-5.55,-0.027 -10.88,-0.694 -16,-2c3.35,0.165 6.68,-0.002 10,-0.5c-1.56,-0.21 -2.89,-0.71 -4,-1.5z" fill="#aa7729"/><path d="M663,205.99099c4.67,0 9.33,0 14,0c-2.49,1.888 -5.49,2.555 -9,2c-1.67,0 -3.33,0 -5,0c-1.11,-0.79 -2.44,-1.29 -4,-1.5c1.29,-0.49 2.63,-0.657 4,-0.5z" fill="#d89b19"/><path d="M301,203.99099c23.667,0 47.333,0 71,0c0.709,0.904 1.709,1.237 3,1c0,1 0,2 0,3c-3.35,-0.165 -6.683,0.002 -10,0.5c5.294,0.818 5.294,1.318 0,1.5c0,1.333 0,2.667 0,4c7.341,-0.166 14.674,0 22,0.5c-6.181,0.172 -12.181,0.672 -18,1.5c-1.976,10.281 -2.643,20.948 -2,32c-3.751,0.183 -7.751,0.183 -12,0c6.929,-5.615 9.429,-12.948 7.5,-22c-2.432,-7.889 -7.265,-10.389 -14.5,-7.5c-1.027,1.866 -2.027,3.7 -3,5.5c-0.333,0 -0.667,0 -1,0c-1.431,0.381 -2.264,1.381 -2.5,3c-0.333,-1.667 -0.667,-3.333 -1,-5c-0.168,8.021 -0.668,16.021 -1.5,24c-0.762,1.128 -1.429,2.295 -2,3.5c-18.997,0.5 -37.997,0.667 -57,0.5c12.333,-0.667 24.667,-1.333 37,-2c6,0 12,0 18,0c0,-10.333 0,-20.667 0,-31c-5.81,-0.99 -11.81,-1.323 -18,-1c0,-2.667 0,-5.333 0,-8c-6.503,0.394 -12.836,-0.272 -19,-2c1,-0.667 2,-1.333 3,-2z" fill="#353431"/><path d="M676,201.99099c3,0 6,0 9,0c0,2.667 0,5.333 0,8c-0.33,0 -0.67,0 -1,0c-3,0 -6,0 -9,0c-2.33,-0.667 -4.67,-1.333 -7,-2c3.51,0.555 6.51,-0.112 9,-2c2.36,0.174 4.69,0.507 7,1c0,-1.333 0,-2.667 0,-4c-2.89,0.306 -5.55,-0.027 -8,-1z" fill="#b38538"/><path d="M74,267.99099c0.167,-19.003 0,-38.003 -0.5,-57c-0.263,-2.764 -1.763,-4.431 -4.5,-5c-0.824,-3.285 -1.324,-6.618 -1.5,-10c-2.38,-4.772 -6.213,-7.439 -11.5,-8c0.877,-8.932 -2.79,-14.932 -11,-18c2.378,-2.418 5.045,-2.585 8,-0.5c6.106,4.711 9.772,10.877 11,18.5c8.236,3.129 11.903,9.129 11,18c1.414,1.124 2.914,2.124 4.5,3c0.5,19.664 0.667,39.331 0.5,59c-2,0 -4,0 -6,0z" fill="#b4723e"/><path d="M132,177.99099c1.935,-1.209 3.935,-1.042 6,0.5c5.637,4.048 8.971,9.548 10,16.5c7.817,2.492 11.15,7.825 10,16c2.022,0.689 3.356,2.022 4,4c0,17.667 0,35.333 0,53c-1.667,0 -3.333,0 -5,0c0.167,-18.003 0,-36.003 -0.5,-54c-1.019,-1.187 -2.186,-2.187 -3.5,-3c-0.166,-8.304 -3.999,-13.971 -11.5,-17c-0.367,-7.079 -3.534,-12.412 -9.5,-16z" fill="#b2703d"/><path d="M610,213.99099c4.58,-0.062 8.91,0.605 13,2c-4.01,0.166 -8.01,-0.001 -12,-0.5c-0.56,-0.383 -0.89,-0.883 -1,-1.5z" fill="#b78636"/><path d="M546,213.99099c7.33,0 14.67,0 22,0c0,10 0,20 0,30c-26.338,0.033 -52.671,0.366 -79,1c0,-10.333 0,-20.667 0,-31c19,0 38,0 57,0z" fill="#f9cb0d"/><path d="M589,243.99099c-2.36,0.163 -4.69,-0.003 -7,-0.5c-4.43,-4.961 -6.09,-10.794 -5,-17.5c0.28,-5.959 3.28,-9.959 9,-12c7.35,2.376 10.35,7.542 9,15.5c1.46,6.475 -0.54,11.308 -6,14.5z" fill="#f6cb11"/><path d="M610,213.99099c0.11,0.617 0.44,1.117 1,1.5c3.99,0.499 7.99,0.666 12,0.5c1.75,1.292 3.75,2.292 6,3c-1.99,73.521 -2.66,147.188 -2,221c-5,0 -10,0 -15,0c0,2 0,4 0,6c-1.61,1.575 -3.61,2.241 -6,2c0,-78 0,-156 0,-234c1.33,0 2.67,0 4,0z" fill="#f3a10c"/><path d="M253,217.99099c-2,0 -4,0 -6,0c2,-2.667 4,-2.667 6,0z" fill="#a89344"/><path d="M317,215.99099c6.19,-0.323 12.19,0.01 18,1c-23.328,0.652 -46.661,0.985 -70,1c-0.333,0 -0.667,0 -1,0c-0.333,0 -0.667,0 -1,0c17.826,-1.087 35.826,-1.753 54,-2z" fill="#807046"/><path d="M369,215.99099c0,10.333 0,20.667 0,31c19.994,-0.614 39.994,-0.947 60,-1c-12.333,0.667 -24.667,1.333 -37,2c-8.333,0 -16.667,0 -25,0c-0.643,-11.052 0.024,-21.719 2,-32z" fill="#6f5d2a"/><path d="M369,215.99099c28,0 56,0 84,0c0,10 0,20 0,30c-2.333,0 -4.667,0 -7,0c-5.667,0 -11.333,0 -17,0c-20.006,0.053 -40.006,0.386 -60,1c0,-10.333 0,-20.667 0,-31z" fill="#fbcc07"/><path d="M335,216.99099c0,10.333 0,20.667 0,31c-6,0 -12,0 -18,0c-12.667,0 -25.333,0 -38,0c-4.667,0 -9.333,0 -14,0c0,-10 0,-20 0,-30c23.339,-0.015 46.672,-0.348 70,-1z" fill="#fdce05"/><path d="M623,215.99099c3.33,0 6.67,0 10,0c1,75.262 1.33,150.596 1,226c-7.16,2.098 -14.49,3.432 -22,4c0,-2 0,-4 0,-6c5,0 10,0 15,0c-0.66,-73.812 0.01,-147.479 2,-221c-2.25,-0.708 -4.25,-1.708 -6,-3z" fill="#f0a411"/><path d="M264,217.99099c0.333,0 0.667,0 1,0c0,10 0,20 0,30c4.667,0 9.333,0 14,0c-4.805,0.987 -9.805,1.321 -15,1c0,-10.333 0,-20.667 0,-31z" fill="#e4c746"/><path d="M633,215.99099c1.33,37.327 2,74.994 2,113c0,37.835 -0.33,75.501 -1,113c0.33,-75.404 0,-150.738 -1,-226z" fill="#a36400"/><path d="M247,217.99099c2,0 4,0 6,0c1.574,0.437 2.741,1.437 3.5,3c3.333,7.333 3.333,14.667 0,22c-0.759,1.563 -1.926,2.563 -3.5,3c-2,1.333 -4,1.333 -6,0c-1.694,-1.027 -3.027,-2.361 -4,-4c0,-1.333 0,-2.667 0,-4c0,-4.333 0,-8.667 0,-13c0.055,-3.114 1.388,-5.448 4,-7z" fill="#f6cb14"/><path d="M355,247.99099c-6.333,-0.333 -9.667,-3.667 -10,-10c-1.173,-4.642 -1.173,-9.309 0,-14c0.973,-1.8 1.973,-3.634 3,-5.5c7.235,-2.889 12.068,-0.389 14.5,7.5c1.929,9.052 -0.571,16.385 -7.5,22z" fill="#f6cb15"/><path d="M479,225.99099c0,4 0,8 0,12c-5.223,12.9 -11.056,13.234 -17.5,1c-2.352,-8.976 -0.186,-16.476 6.5,-22.5c1.759,-0.798 3.426,-0.631 5,0.5c3.282,2.258 5.282,5.258 6,9z" fill="#f6cb10"/><path d="M204,188.99099c4.138,-1.17 7.638,0.164 10.5,4c2.059,3.449 3.559,7.116 4.5,11c6.5,2.318 9.5,6.985 9,14c1.697,0.864 2.863,2.197 3.5,4c0.5,15.663 0.667,31.33 0.5,47c-1.667,0 -3.333,0 -5,0c0.167,-16.003 0,-32.003 -0.5,-48c-1.097,-1.553 -2.43,-2.886 -4,-4c0.692,-7.319 -2.475,-11.653 -9.5,-13c-0.1,-6.762 -3.1,-11.762 -9,-15z" fill="#b57641"/><path d="M263,217.99099c0.333,0 0.667,0 1,0c0,10.333 0,20.667 0,31c5.195,0.321 10.195,-0.013 15,-1c12.667,0 25.333,0 38,0c-12.333,0.667 -24.667,1.333 -37,2c-5.667,0 -11.333,0 -17,0c0,-10.667 0,-21.333 0,-32z" fill="#897222"/><path d="M-267,176.99099c-0.32,3.398 0.013,6.732 1,10c3.807,1.309 5.974,3.976 6.5,8c0.5,24.331 0.667,48.664 0.5,73c-22.359,0.656 -44.359,-0.011 -66,-2c11.644,-15.824 23.144,-31.824 34.5,-48c8.408,-13.5 16.241,-27.166 23.5,-41z" fill="#884b1d"/><path d="M644,217.99099c5,0 10,0 15,0c0,8.667 0,17.333 0,26c-5,0 -10,0 -15,0c0,-8.667 0,-17.333 0,-26z" fill="#eb9e14"/><path d="M667,219.99099c3.54,-0.313 6.88,0.021 10,1c0,7.667 0,15.333 0,23c-3.33,0 -6.67,0 -10,0c0,-8 0,-16 0,-24z" fill="#f1a20d"/><path d="M641,221.99099c0,5.333 0,10.667 0,16c-0.6,2.613 -1.43,2.613 -2.5,0c-0.97,-6.157 -0.47,-12.157 1.5,-18c0.8,0.457 1.13,1.124 1,2z" fill="#df9c28"/><path d="M641,221.99099c1.53,2.134 2.2,4.634 2,7.5c0.14,3.15 -0.53,5.983 -2,8.5c0,-5.333 0,-10.667 0,-16z" fill="#b68532"/><path d="M344,223.99099c0.333,0 0.667,0 1,0c-1.173,4.691 -1.173,9.358 0,14c-0.617,-0.111 -1.117,-0.444 -1.5,-1c-0.629,-4.371 -0.463,-8.704 0.5,-13z" fill="#987c23"/><path d="M665,223.99099c-1.09,0.12 -1.75,0.787 -2,2c-1.03,3.965 -1.2,7.965 -0.5,12c0.42,1.256 1.25,1.923 2.5,2c-0.45,1.965 -1.45,2.298 -3,1c-1.12,-5.614 -1.29,-11.28 -0.5,-17c1.38,-2.625 2.54,-2.625 3.5,0z" fill="#be8422"/><path d="M665,223.99099c0,0.667 0,1.333 0,2c0,4 0,8 0,12c0,0.667 0,1.333 0,2c-1.25,-0.077 -2.08,-0.744 -2.5,-2c-0.7,-4.035 -0.53,-8.035 0.5,-12c0.25,-1.213 0.91,-1.88 2,-2z" fill="#eda11a"/><path d="M243,224.99099c0,4.333 0,8.667 0,13c-2.59,-4.304 -2.59,-8.637 0,-13z" fill="#ab983f"/><path d="M683,223.99099c0,5.333 0,10.667 0,16c-1.33,0 -2.67,0 -4,0c0,-5.333 0,-10.667 0,-16c1.33,0 2.67,0 4,0z" fill="#d89724"/><path d="M479,225.99099c1.472,1.617 2.139,3.617 2,6c0.139,2.383 -0.528,4.383 -2,6c0,-4 0,-8 0,-12z" fill="#b9a33d"/><path d="M667,219.99099c0,8 0,16 0,24c3.33,0 6.67,0 10,0c0,-7.667 0,-15.333 0,-23c0.99,7.816 1.33,15.816 1,24c-4,0 -8,0 -12,0c0.3,-2.559 -0.03,-4.893 -1,-7c0,-4 0,-8 0,-12c0.67,-2 1.33,-4 2,-6z" fill="#675a35"/><path d="M239,205.99099c0,12.667 0,25.333 0,38c0,58 0,116 0,174c-0.667,0 -1.333,0 -2,0c-0.167,-58.001 0,-116.001 0.5,-174c0.169,-12.84 0.669,-25.507 1.5,-38z" fill="#dfb9a5"/><path d="M239,243.99099c0.667,0 1.333,0 2,0c0,57.333 0,114.667 0,172c-0.128,2.155 0.372,4.155 1.5,6c0.167,8 0.333,16 0.5,24c-0.016,8.4 -0.683,16.566 -2,24.5c0.667,0.333 1.333,0.667 2,1c-1.293,0.49 -2.627,0.657 -4,0.5c0,-18 0,-36 0,-54c0,-58 0,-116 0,-174z" fill="#2c312d"/><path d="M243,241.99099c0.167,58.668 0,117.334 -0.5,176c-0.278,-0.916 -0.778,-1.582 -1.5,-2c0,-57.333 0,-114.667 0,-172c0,-1.333 0.667,-2 2,-2z" fill="#2c313d"/><path d="M247,245.99099c2,1.333 4,1.333 6,0c-2,2.667 -4,2.667 -6,0z" fill="#987d2e"/><path d="M429,245.99099c5.667,0 11.333,0 17,0c0.111,0.617 0.444,1.117 1,1.5c-18.33,0.5 -36.664,0.667 -55,0.5c12.333,-0.667 24.667,-1.333 37,-2z" fill="#2c2514"/><path d="M825,191.99099c11.52,24.41 20.86,49.743 28,76c-9.33,0 -18.67,0 -28,0c0,-25.333 0,-50.667 0,-76z" fill="#8a4c1c"/><path d="M675,209.99099c3,0 6,0 9,0c0,85.333 0,170.667 0,256c-1,0 -2,0 -3,0c1.99,-75.12 2.66,-150.453 2,-226c0,-5.333 0,-10.667 0,-16c0,-4.333 0,-8.667 0,-13c-2.89,0.306 -5.55,-0.027 -8,-1z" fill="#090100"/><path d="M684,209.99099c0.33,0 0.67,0 1,0c0,76.667 0,153.333 0,230c0,9 0,18 0,27c-1.33,0 -2.67,0 -4,0c0,-0.333 0,-0.667 0,-1c1,0 2,0 3,0c0,-85.333 0,-170.667 0,-256z" fill="#9d9387"/><path d="M-202,195.99099c0,23.667 0,47.333 0,71c21.333,0 42.667,0 64,0c-0.284,-1.915 0.049,-3.581 1,-5c0,2 0,4 0,6c-22,0 -44,0 -66,0c-0.331,-24.172 0.002,-48.172 1,-72z" fill="#a1683d"/><path d="M107,212.99099c0,18.333 0,36.667 0,55c16.667,0 33.333,0 50,0c1.667,0 3.333,0 5,0c0,-17.667 0,-35.333 0,-53c0.997,17.826 1.33,35.826 1,54c-19,0 -38,0 -57,0c-0.33,-18.841 0.003,-37.507 1,-56z" fill="#cf9a72"/><path d="M-293,294.99099c8.096,4.5 12.43,11.5 13,21c10.724,3.442 15.39,10.775 14,22c2.97,1.137 5.136,3.137 6.5,6c0.5,24.998 0.667,49.998 0.5,75c-18.678,0.778 -37.345,1.778 -56,3c-3.333,0 -6.667,0 -10,0c0,-26.667 0,-53.333 0,-80c1.112,-3.446 3.445,-5.446 7,-6c-0.592,-5.605 0.241,-10.939 2.5,-16c3.378,-2.523 7.045,-4.523 11,-6c0.389,-8.528 4.222,-14.862 11.5,-19z" fill="#884a1b"/><path d="M-171,296.99099c8.665,3.613 13.165,10.28 13.5,20c10.873,2.723 15.707,9.723 14.5,21c1.922,1.211 3.755,2.544 5.5,4c0.5,23.664 0.667,47.331 0.5,71c-22.006,1.158 -44.006,2.492 -66,4c-0.167,-23.669 0,-47.336 0.5,-71c1.667,-3 4,-5.333 7,-7c-1.815,-11.509 2.852,-18.842 14,-22c0.089,-8.512 3.589,-15.179 10.5,-20z" fill="#884b1c"/><path d="M45,301.99099c7.654,2.941 11.654,8.607 12,17c8.697,2.362 12.697,8.029 12,17c1.823,0.991 3.323,2.324 4.5,4c0.5,19.33 0.667,38.664 0.5,58c-18.646,1.443 -37.312,2.776 -56,4c-0.167,-20.003 0,-40.003 0.5,-60c1.193,-2.105 2.86,-3.772 5,-5c-1.442,-9.464 2.392,-15.464 11.5,-18c0.525,-7.392 3.858,-13.058 10,-17z" fill="#884b1c"/><path d="M205,300.99099c3.644,-0.683 6.811,0.651 9.5,4c2.437,2.876 3.77,6.21 4,10c6.866,2.05 10.033,6.717 9.5,14c1.634,0.468 2.8,1.468 3.5,3c0.5,18.664 0.667,37.33 0.5,56c-1.667,0 -3.333,0 -5,0c0.167,-18.67 0,-37.336 -0.5,-56c-3.892,-2.987 -5.559,-6.987 -5,-12c-2.421,-2.094 -5.088,-3.76 -8,-5c-0.988,-5.814 -3.821,-10.481 -8.5,-14z" fill="#b57643"/><path d="M205,300.99099c4.679,3.519 7.512,8.186 8.5,14c2.912,1.24 5.579,2.906 8,5c-0.559,5.013 1.108,9.013 5,12c0.5,18.664 0.667,37.33 0.5,56c-15.006,0.546 -30.006,1.213 -45,2c-0.167,-19.003 0,-38.003 0.5,-57c3.691,-3.02 5.358,-7.02 5,-12c2.067,-2.57 4.567,-4.57 7.5,-6c0.913,-6.524 4.246,-11.191 10,-14z" fill="#884a1b"/><path d="M738,295.99099c7.98,4.609 12.48,11.609 13.5,21c10.87,3.709 15.7,11.376 14.5,23c2.63,0.801 4.47,2.467 5.5,5c0.5,23.998 0.67,47.998 0.5,72c-22,-1.368 -44,-2.702 -66,-4c0,-0.333 0,-0.667 0,-1c-0.17,-22.669 0,-45.336 0.5,-68c1.49,-3.998 4.32,-6.498 8.5,-7.5c-1.4,-4.204 -1.23,-8.371 0.5,-12.5c3.11,-2.952 6.61,-5.285 10.5,-7c1.78,-8.39 5.78,-15.39 12,-21z" fill="#894a1b"/><path d="M-135,324.99099c-0.597,4.794 0.07,9.127 2,13c0.02,18.069 1.02,36.069 3,54c-1.493,6.973 -2.827,13.973 -4,21c-1,0 -2,0 -3,0c0.167,-23.669 0,-47.336 -0.5,-71c-1.745,-1.456 -3.578,-2.789 -5.5,-4c1.207,-11.277 -3.627,-18.277 -14.5,-21c-0.335,-9.72 -4.835,-16.387 -13.5,-20c1.664,-1.499 3.664,-2.499 6,-3c10.461,4.132 16.461,11.799 18,23c2.107,1.137 4.273,2.137 6.5,3c1.683,1.851 3.516,3.517 5.5,5z" fill="#b1743b"/><path d="M133,303.99099c1.99,2.431 4.157,4.764 6.5,7c0.833,3 1.667,6 2.5,9c3.08,1.289 5.914,2.955 8.5,5c1.036,3.253 1.703,6.586 2,10c2,0.667 3.333,2 4,4c0.5,17.997 0.667,35.997 0.5,54c-16.716,0.42 -33.382,1.42 -50,3c-0.167,-18.67 0,-37.336 0.5,-56c1.333,-1.333 2.667,-2.667 4,-4c-0.681,-7.641 2.486,-12.974 9.5,-16c1.236,-4.28 3.069,-8.28 5.5,-12c1.638,-2.234 3.805,-3.567 6.5,-4z" fill="#884a1c"/><path d="M859,293.99099c0,0.333 0,0.667 0,1c-8.04,4.571 -12.21,11.571 -12.5,21c-10.93,3.126 -15.76,10.459 -14.5,22c-2.25,0.753 -4.09,2.086 -5.5,4c-0.5,25.665 -0.67,51.331 -0.5,77c-3.33,0 -6.67,0 -10,0c-0.17,-25.336 0,-50.669 0.5,-76c5.48,-3.816 7.81,-9.149 7,-16c3.18,-5.081 7.51,-8.747 13,-11c1.41,-11.239 7.24,-19.239 17.5,-24c1.58,0.956 3.24,1.623 5,2z" fill="#b1723b"/><path d="M157,392.99099c0.167,-18.003 0,-36.003 -0.5,-54c-0.667,-2 -2,-3.333 -4,-4c-0.297,-3.414 -0.964,-6.747 -2,-10c-2.586,-2.045 -5.42,-3.711 -8.5,-5c-0.833,-3 -1.667,-6 -2.5,-9c-2.343,-2.236 -4.51,-4.569 -6.5,-7c4.137,-0.526 7.637,1.141 10.5,5c2.242,3.293 3.409,6.96 3.5,11c8.242,1.439 11.909,6.439 11,15c1.634,0.468 2.8,1.468 3.5,3c0.5,18.33 0.667,36.664 0.5,55c-1.667,0 -3.333,0 -5,0z" fill="#af733b"/><path d="M859,294.99099c4.28,18.953 6.28,38.286 6,58c0.37,21.985 -1.96,43.652 -7,65c-10.49,2.318 -21.16,2.651 -32,1c-0.17,-25.669 0,-51.335 0.5,-77c1.41,-1.914 3.25,-3.247 5.5,-4c-1.26,-11.541 3.57,-18.874 14.5,-22c0.29,-9.429 4.46,-16.429 12.5,-21z" fill="#894a1b"/><path d="M-259,418.99099c0.167,-25.002 0,-50.002 -0.5,-75c-1.364,-2.863 -3.53,-4.863 -6.5,-6c1.39,-11.225 -3.276,-18.558 -14,-22c-0.57,-9.5 -4.904,-16.5 -13,-21c3.083,-3.687 6.416,-3.853 10,-0.5c2.833,2.833 5.667,5.667 8.5,8.5c1.603,4.642 3.103,9.308 4.5,14c10.376,3.211 14.876,10.211 13.5,21c2.292,1.29 4.292,2.957 6,5c0.5,25.331 0.667,50.664 0.5,76c-3,0 -6,0 -9,0z" fill="#b2743b"/><path d="M74,397.99099c0.167,-19.336 0,-38.67 -0.5,-58c-1.177,-1.676 -2.677,-3.009 -4.5,-4c0.697,-8.971 -3.303,-14.638 -12,-17c-0.346,-8.393 -4.346,-14.059 -12,-17c5.275,-2.499 9.775,-1.166 13.5,4c2.705,3.943 4.538,8.277 5.5,13c3.589,1.375 6.756,3.375 9.5,6c0.175,3.711 0.675,7.378 1.5,11c1.758,0.628 3.258,1.628 4.5,3c0.5,19.664 0.667,39.331 0.5,59c-2,0 -4,0 -6,0z" fill="#b1723d"/><path d="M738,295.99099c-6.22,5.61 -10.22,12.61 -12,21c-3.89,1.715 -7.39,4.048 -10.5,7c-1.73,4.129 -1.9,8.296 -0.5,12.5c-4.18,1.002 -7.01,3.502 -8.5,7.5c-0.5,22.664 -0.67,45.331 -0.5,68c-3,0 -6,0 -9,0c0,-23 0,-46 0,-69c1.58,-2.555 3.74,-4.555 6.5,-6c-1.5,-11.324 3.33,-17.991 14.5,-20c-0.3,-10.575 4.37,-18.075 14,-22.5c2.38,-0.738 4.38,-0.238 6,1.5z" fill="#b3733a"/><path d="M697,342.99099c0,23 0,46 0,69c3,0 6,0 9,0c0,0.333 0,0.667 0,1c-3.33,0 -6.67,0 -10,0c-0.33,-23.506 0,-46.839 1,-70z" fill="#ce9e73"/><path d="M-325,341.99099c0,26.667 0,53.333 0,80c3.333,0 6.667,0 10,0c-3.462,0.982 -7.129,1.315 -11,1c-0.331,-27.172 0.002,-54.172 1,-81z" fill="#c99066"/><path d="M7,279.99099c-1.799,31.07 -1.132,62.07 2,93c-0.004,6.704 -0.67,13.037 -2,19c0,-3.333 0,-6.667 0,-10c0.166,-9.006 0,-18.006 -0.5,-27c-0.383,-0.556 -0.883,-0.889 -1.5,-1c-0.167,-21.336 0,-42.669 0.5,-64c0.179,-3.525 0.679,-6.859 1.5,-10z" fill="#f9e6d4"/><path d="M7,381.99099c0,3.333 0,6.667 0,10c0.148,4.819 -0.518,9.485 -2,14c-7.063,19.791 -16.563,38.457 -28.5,56c-21.74,21.75 -44.073,43.08 -67,64c-3.4,4.22 -6.567,8.56 -9.5,13c-0.917,0.63 -1.917,0.96 -3,1c-3.817,-1.91 -7.817,-3.24 -12,-4c-3.301,-1.99 -6.634,-3.99 -10,-6c0,-8.67 0,-17.33 0,-26c20.572,-9.29 40.572,-19.62 60,-31c3.585,-4.418 7.919,-7.918 13,-10.5c25.178,-23.83 44.845,-50.663 59,-80.5z" fill="#fefefe"/><path d="M5,405.99099c-0.505,6.695 -1.338,13.362 -2.5,20c-0.83,25.503 -0.663,50.837 0.5,76c0,6 0,12 0,18c-0.722,-0.42 -1.222,-1.08 -1.5,-2c-0.167,-25.67 -0.667,-51.34 -1.5,-77c-3.318,9.239 -7.818,17.906 -13.5,26c-4.997,6.657 -9.997,13.323 -15,20c-13.811,12.14 -25.811,25.81 -36,41c-1.781,5.35 -3.947,10.51 -6.5,15.5c14.825,0.22 29.491,1.05 44,2.5c-2.837,1.9 -6.171,2.57 -10,2c-12.844,0.33 -25.511,0 -38,-1c-7.313,-0.56 -14.647,-1.72 -22,-3.5c-2.227,-0.94 -4.227,-2.11 -6,-3.5c1.083,-0.04 2.083,-0.37 3,-1c2.933,-4.44 6.1,-8.78 9.5,-13c22.927,-20.92 45.26,-42.25 67,-64c11.937,-17.543 21.437,-36.209 28.5,-56z" fill="#f1efee"/><path d="M831,479.99099c-23.79,37.94 -57.13,63.77 -100,77.5c-36.39,7.64 -73.05,13.98 -110,19c-37.43,7.58 -74.763,15.75 -112,24.5c-90.347,23.69 -179.681,50.52 -268,80.5c-63.954,19.33 -129.288,31.99 -196,38c-128.068,9.43 -243.734,-23.24 -347,-98c-18.239,-14.4 -34.239,-30.9 -48,-49.5c-2.13,-3.12 -3.7967,-6.46 -5,-10c63.468,-31.31 129.802,-55.48 199,-72.5c1.565,-1.41 3.231,-2.58 5,-3.5c-3.924,9.69 -6.924,19.69 -9,30c0.65,2.5 2.317,3.84 5,4c0,2.67 0,5.33 0,8c-1.449,9.25 -3.115,18.59 -5,28c-1.731,6.95 -4.065,13.62 -7,20c-28.983,2.44 -57.65,6.94 -86,13.5c-7.674,2.59 -14.84,6.09 -21.5,10.5c-0.667,2.67 -0.667,5.33 0,8c2.46,1.46 4.627,3.29 6.5,5.5c10.298,4.48 20.965,7.81 32,10c81.751,13.16 164.084,16.16 247,9c22.446,-2.57 44.779,-5.91 67,-10c10.846,-2.78 21.18,-6.61 31,-11.5c3.694,-8.71 1.028,-14.54 -8,-17.5c-10.486,-3.61 -21.153,-6.61 -32,-9c-35.771,-5.79 -71.771,-9.29 -108,-10.5c0.16,-1.7 -0.006,-3.37 -0.5,-5c-0.383,0.56 -0.883,0.89 -1.5,1c-0.324,-4.05 0.009,-8.05 1,-12c1.591,-3.18 2.591,-6.51 3,-10c3.829,0.57 7.163,-0.1 10,-2c10.115,0.22 20.115,-0.45 30,-2c0,-8 0,-16 0,-24c0,-6 0,-12 0,-18c0,-15.33 0,-30.667 0,-46c77.471,-12.6 155.471,-19.6 234,-21c0.268,2.619 -0.065,5.119 -1,7.5c-52.203,16.71 -104.203,33.71 -156,51c-6.878,0.14 -13.211,1.97 -19,5.5c13.693,0.61 27.36,1.45 41,2.5c155.895,4.11 311.728,8.61 467.5,13.5c50.96,-15.32 101.8,-30.82 152.5,-46.5c11.05,-0.327 22.05,0.34 33,2c24.65,4.275 49.32,8.442 74,12.5c-0.21,-1.68 0.45,-2.679 2,-3z" fill="#f2b78b"/><path d="M-139,439.99099c-3.573,15.427 -7.573,30.76 -12,46c-1.769,0.92 -3.435,2.09 -5,3.5c-69.198,17.02 -135.532,41.19 -199,72.5c-0.8764,0.13 -1.5431,-0.2 -2,-1c-13.011,-22.03 -21.6777,-45.7 -26,-71c0,-2 0,-4 0,-6c12.6829,-3.39 25.3496,-6.894 38,-10.5c67.804,-15.578 136.471,-26.745 206,-33.5z" fill="#e9a97f"/><path d="M237,417.99099c0.667,0 1.333,0 2,0c0,18 0,36 0,54c0,2 0,4 0,6c101.333,2.123 202.666,4.12 304,6c19.47,1.87 39.14,2.37 59,1.5c26.27,-6.651 52.6,-12.817 79,-18.5c1.33,0 2.67,0 4,0c0,-9 0,-18 0,-27c30.99,3.498 61.99,6.998 93,10.5c19.58,4.25 39.25,8.083 59,11.5c1.83,0.085 3.17,0.752 4,2c-2.42,5.976 -5.75,11.309 -10,16c-1.55,0.321 -2.21,1.32 -2,3c-24.68,-4.058 -49.35,-8.225 -74,-12.5c-10.95,-1.66 -21.95,-2.327 -33,-2c-50.7,15.68 -101.54,31.18 -152.5,46.5c-155.772,-4.89 -311.605,-9.39 -467.5,-13.5c-13.64,-1.05 -27.307,-1.89 -41,-2.5c5.789,-3.53 12.122,-5.36 19,-5.5c51.797,-17.29 103.797,-34.29 156,-51c0.935,-2.381 1.268,-4.881 1,-7.5c-78.529,1.4 -156.529,8.4 -234,21c-0.626,-10.095 0.041,-19.928 2,-29.5c77.253,-4.929 154.587,-7.762 232,-8.5z" fill="#e9a97f"/><path d="M3,519.99099c0,8 0,16 0,24c-9.885,1.55 -19.885,2.22 -30,2c-14.509,-1.45 -29.175,-2.28 -44,-2.5c2.553,-4.99 4.719,-10.15 6.5,-15.5c10.189,-15.19 22.189,-28.86 36,-41c5.003,-6.677 10.003,-13.343 15,-20c5.682,-8.094 10.182,-16.761 13.5,-26c0.833,25.66 1.333,51.33 1.5,77c0.278,0.92 0.778,1.58 1.5,2z" fill="#fefefe"/><path d="M-155,519.99099c9.999,3.33 19.999,6.67 30,10c3.366,2.01 6.699,4.01 10,6c0,0.67 0,1.33 0,2c-11.695,1.5 -23.362,1.33 -35,-0.5c-1.372,-0.4 -2.705,-0.9 -4,-1.5c-0.98,-2.59 -1.313,-5.25 -1,-8c0,-2.67 0,-5.33 0,-8z" fill="#e67459"/><path d="M-115,535.99099c4.183,0.76 8.183,2.09 12,4c1.773,1.39 3.773,2.56 6,3.5c7.353,1.78 14.687,2.94 22,3.5c-2,0 -4,0 -6,0c-0.95,9.11 -2.284,18.11 -4,27c-8.162,-2.8 -16.162,-6.13 -24,-10c-1.955,-0.95 -3.622,-2.29 -5,-4c-3.645,-7.21 -3.978,-14.54 -1,-22c0,-0.67 0,-1.33 0,-2z" fill="#f1b68b"/><path d="M-155,527.99099c-0.313,2.75 0.02,5.41 1,8c1.295,0.6 2.628,1.1 4,1.5c11.638,1.83 23.305,2 35,0.5c-2.978,7.46 -2.645,14.79 1,22c1.378,1.71 3.045,3.05 5,4c7.838,3.87 15.838,7.2 24,10c-0.452,3.66 -0.952,7.33 -1.5,11c-3.633,5.06 -5.8,10.73 -6.5,17c-23.343,0.33 -46.676,0 -70,-1c-4.185,-3.71 -6.185,-8.37 -6,-14c0.392,-3.76 1.059,-7.42 2,-11c2.935,-6.38 5.269,-13.05 7,-20c1.885,-9.41 3.551,-18.75 5,-28z" fill="#ef8362"/><path d="M-75,546.99099c12.489,1 25.156,1.33 38,1c-0.409,3.49 -1.409,6.82 -3,10c-0.991,3.95 -1.324,7.95 -1,12c-0.839,5.65 1.161,9.98 6,13c3.333,2 6.667,4 10,6c8.829,2.42 17.162,5.92 25,10.5c12.396,1.42 24.729,2.92 37,4.5c0.537,5.24 -0.13,10.24 -2,15c-2.667,1.33 -5.333,2.67 -8,4c-5.667,0.33 -11.333,0.67 -17,1c-32.319,-1.38 -64.653,-2.38 -97,-3c-1.832,-0.75 -3.499,-1.75 -5,-3c-0.995,-5.29 -1.328,-10.63 -1,-16c0.7,-6.27 2.867,-11.94 6.5,-17c0.548,-3.67 1.048,-7.34 1.5,-11c1.716,-8.89 3.05,-17.89 4,-27c2,0 4,0 6,0z" fill="#f58f6c"/><path d="M-167,575.99099c-0.941,3.58 -1.608,7.24 -2,11c-0.185,5.63 1.815,10.29 6,14c23.324,1 46.657,1.33 70,1c-0.328,5.37 0.005,10.71 1,16c1.501,1.25 3.168,2.25 5,3c32.347,0.62 64.681,1.62 97,3c5.667,-0.33 11.333,-0.67 17,-1c2.667,-1.33 5.333,-2.67 8,-4c1.87,-4.76 2.537,-9.76 2,-15c-12.271,-1.58 -24.604,-3.08 -37,-4.5c-7.838,-4.58 -16.171,-8.08 -25,-10.5c-3.333,-2 -6.667,-4 -10,-6c-4.839,-3.02 -6.839,-7.35 -6,-13c0.617,-0.11 1.117,-0.44 1.5,-1c0.494,1.63 0.66,3.3 0.5,5c36.229,1.21 72.229,4.71 108,10.5c10.847,2.39 21.514,5.39 32,9c9.028,2.96 11.694,8.79 8,17.5c-9.82,4.89 -20.154,8.72 -31,11.5c-22.221,4.09 -44.554,7.43 -67,10c-82.916,7.16 -165.249,4.16 -247,-9c-11.035,-2.19 -21.702,-5.52 -32,-10c-1.873,-2.21 -4.04,-4.04 -6.5,-5.5c-0.667,-2.67 -0.667,-5.33 0,-8c6.66,-4.41 13.826,-7.91 21.5,-10.5c28.35,-6.56 57.017,-11.06 86,-13.5z" fill="#eaa97e"/></g></g></svg>