<svg version="1.1" xmlns="http://www.w3.org/2000/svg" xmlns:xlink="http://www.w3.org/1999/xlink" width="483.49414" height="61.91215" viewBox="0,0,483.49414,61.91215"><g transform="translate(1.72907,-149.15915)"><g data-paper-data="{&quot;isPaintingLayer&quot;:true}" fill="#24262a" fill-rule="nonzero" stroke="none" stroke-width="1" stroke-linecap="butt" stroke-linejoin="miter" stroke-miterlimit="10" stroke-dasharray="" stroke-dashoffset="0" style="mix-blend-mode: normal"><path d="M142.06776,149.89468c34.1353,2.92503 61.54129,8.63124 97.36832,20.18752c27.25561,8.82305 44.51124,13.13867 66.72926,16.73502c21.95486,3.59635 35.3759,4.60334 59.5864,4.60334c22.85712,0 33.83456,-0.81517 53.00747,-3.88406c20.07517,-3.16479 41.80446,-8.96691 56.61649,-15.00878c2.63157,-1.10288 6.18103,-1.86634 6.33141,-1.86634c0.11278,0 0.02625,10.54173 0.02625,21.6185c0,0 0,-0.77994 0,0.06349c0,2.83077 0,17.87164 0,17.87164l-241.73334,0.62585l-241.66696,0.23043l-0.01984,-20.60335l-0.04228,-19.99149l4.62406,-1.78483c24.02253,-9.78207 55.07513,-16.59116 85.41345,-18.74898c3.94737,-0.28771 8.15788,-0.57542 9.39849,-0.67132c4.62406,-0.33566 38.57139,0.14385 44.36085,0.62337z"/></g></g></svg>